<svg xmlns="http://www.w3.org/2000/svg" xmlns:xlink="http://www.w3.org/1999/xlink" width="58" height="78.476" viewBox="0 0 58 78.476">
  <defs>
    <filter id="ionic-md-pin" x="0" y="0" width="58" height="78.476" filterUnits="userSpaceOnUse">
      <feOffset dy="2" input="SourceAlpha"/>
      <feGaussianBlur stdDeviation="1" result="blur"/>
      <feFlood flood-opacity="0.161"/>
      <feComposite operator="in" in2="blur"/>
      <feComposite in="SourceGraphic"/>
    </filter>
  </defs>
  <g id="place-roadblock" transform="translate(-154 -246.649)">
    <g transform="matrix(1, 0, 0, 1, 154, 246.65)" filter="url(#ionic-md-pin)">
      <g id="ionic-md-pin-2" data-name="ionic-md-pin" transform="translate(-2.75 -0.25)" fill="#efa02c">
        <path d="M 31.75000190734863 72.98777008056641 L 31.3823413848877 72.58885955810547 C 31.31960105895996 72.52079010009766 25.03659248352051 65.6773681640625 18.83817100524902 56.67417907714844 C 15.19294166564941 51.37950897216797 12.28715229034424 46.38159942626953 10.20151233673096 41.81927871704102 C 7.579482078552246 36.08361053466797 6.250001907348633 31.01362037658691 6.250001907348633 26.75016021728516 C 6.250001907348633 23.38834953308105 6.927551746368408 20.12075042724609 8.263812065124512 17.03812026977539 C 9.553192138671875 14.06367969512939 11.39683151245117 11.3894100189209 13.74355220794678 9.08961009979248 C 16.08957099914551 6.79049015045166 18.81715202331543 4.984409809112549 21.85053253173828 3.721539974212646 C 24.99284172058105 2.413320064544678 28.32351112365723 1.75 31.75000190734863 1.75 C 35.17649078369141 1.75 38.50715255737305 2.413320064544678 41.64947128295898 3.721539974212646 C 44.68284225463867 4.984409809112549 47.41043090820312 6.79049015045166 49.75645065307617 9.08961009979248 C 52.1031608581543 11.3894100189209 53.94681167602539 14.06367969512939 55.23618316650391 17.03812026977539 C 56.57245254516602 20.12075042724609 57.25 23.38834953308105 57.25 26.75016021728516 C 57.25 31.01362037658691 55.9205207824707 36.08361053466797 53.29849243164062 41.81927871704102 C 51.21285247802734 46.38159942626953 48.30706024169922 51.37950897216797 44.66183090209961 56.67417907714844 C 38.46341323852539 65.6773681640625 32.18040084838867 72.52079010009766 32.11766052246094 72.58885955810547 L 31.75000190734863 72.98777008056641 Z" stroke="none"/>
        <path d="M 31.75000190734863 2.25 C 17.99937057495117 2.25 6.750003814697266 13.27452850341797 6.750003814697266 26.75016021728516 C 6.750003814697266 45.125 31.75000190734863 72.25 31.75000190734863 72.25 C 31.75000190734863 72.25 56.75 45.125 56.75 26.75016021728516 C 56.75 13.27452850341797 45.5006217956543 2.25 31.75000190734863 2.25 M 31.75000190734863 1.25 C 35.24280166625977 1.25 38.63811111450195 1.926246643066406 41.84164428710938 3.25994873046875 C 44.93405151367188 4.547401428222656 47.7147216796875 6.388633728027344 50.10641098022461 8.732513427734375 C 52.49949264526367 11.07775115966797 54.37975311279297 13.80524826049805 55.69494247436523 16.83926010131836 C 57.0585823059082 19.98503112792969 57.75 23.31953811645508 57.75 26.75016021728516 C 57.75 31.08586120605469 56.40529251098633 36.22578811645508 53.75321960449219 42.02716064453125 C 51.65554046630859 46.61582183837891 48.73532104492188 51.63917922973633 45.07366943359375 56.95771789550781 C 38.85535430908203 65.98979949951172 32.54830169677734 72.85938262939453 32.48532104492188 72.92771911621094 L 31.75000190734863 73.72554016113281 L 31.01468276977539 72.92771911621094 C 30.95170211791992 72.85938262939453 24.6446533203125 65.98979949951172 18.42633056640625 56.95771789550781 C 14.76468276977539 51.63917922973633 11.84446334838867 46.61582183837891 9.746780395507812 42.02716064453125 C 7.094711303710938 36.22578811645508 5.750003814697266 31.08586120605469 5.750003814697266 26.75016021728516 C 5.750003814697266 23.31953811645508 6.441421508789062 19.98503112792969 7.805061340332031 16.83926010131836 C 9.120250701904297 13.80524826049805 11.00050354003906 11.07775115966797 13.39358139038086 8.732513427734375 C 15.78527069091797 6.388633728027344 18.56595230102539 4.547401428222656 21.65836334228516 3.25994873046875 C 24.86188125610352 1.926246643066406 28.2572021484375 1.25 31.75000190734863 1.25 Z" stroke="none" fill="#fff"/>
      </g>
    </g>
    <circle id="Ellipse" cx="17" cy="17" r="17" transform="translate(166 256)" fill="#fff"/>
    <path id="roadblock-svgrepo-com" d="M20.084,34.241H18.628a.368.368,0,0,0-.368.368v1.356H2.192V34.609a.368.368,0,0,0-.368-.368H.368A.368.368,0,0,0,0,34.609V49.635A.368.368,0,0,0,.368,50H1.824a.368.368,0,0,0,.368-.368v-5.83H18.261v5.83a.368.368,0,0,0,.368.368h1.456a.368.368,0,0,0,.368-.368V34.609A.368.368,0,0,0,20.084,34.241ZM2.192,42.435V40.545l1.586-3.21H6.223L3.7,42.435H2.192Zm5.386,0,2.521-5.1h2.445l-2.521,5.1ZM18.1,38.88l-1.757,3.555H13.9l2.521-5.1H18.1V38.88Z" transform="translate(173 230.759)"/>
  </g>
</svg>
