<svg xmlns="http://www.w3.org/2000/svg" width="31" height="18.352" viewBox="0 0 31 18.352"><defs><style>.a{fill:#b4b4b4;fill-rule:evenodd;}</style></defs><path class="a" d="M30.9,13.655l-2.078-8.83A6.259,6.259,0,0,0,22.727,0H8.273A6.259,6.259,0,0,0,2.181,4.824L.1,13.655a3.822,3.822,0,0,0,3.721,4.7A3.014,3.014,0,0,0,6.4,16.9L8,14.228a1.53,1.53,0,0,1,1.306-.74H21.7a1.531,1.531,0,0,1,1.306.74l1.6,2.667a3.015,3.015,0,0,0,2.573,1.456,3.822,3.822,0,0,0,3.72-4.7Zm-19.287-6H10.572V8.689a.908.908,0,0,1-1.816,0V7.652H7.718a.908.908,0,0,1,0-1.816H8.756V4.8a.908.908,0,0,1,1.816,0V5.836h1.037a.908.908,0,0,1,0,1.816Zm7.781,0a.908.908,0,1,1,.908-.908A.908.908,0,0,1,19.39,7.652ZM21.336,9.6a.908.908,0,1,1,.908-.908A.909.909,0,0,1,21.336,9.6Zm0-3.891a.908.908,0,1,1,.908-.908A.909.909,0,0,1,21.336,5.707Zm1.945,1.945a.908.908,0,1,1,.908-.908A.909.909,0,0,1,23.281,7.652Zm0,0" transform="translate(0 0)"/></svg>