<svg xmlns="http://www.w3.org/2000/svg" width="27.585" height="27.584" viewBox="0 0 27.585 27.584"><defs><style>.a,.b{fill:#fff;}.a{stroke:#fff;}</style></defs><g transform="translate(0.5 -0.501)"><path class="a" d="M21.442,94.844a1.128,1.128,0,0,0-1.128,1.128V105a1.13,1.13,0,0,1-1.128,1.128H3.386A1.13,1.13,0,0,1,2.257,105V89.2a1.13,1.13,0,0,1,1.128-1.128h9.028a1.129,1.129,0,0,0,0-2.257H3.386A3.39,3.39,0,0,0,0,89.2V105a3.39,3.39,0,0,0,3.386,3.386h15.8A3.39,3.39,0,0,0,22.571,105V95.973a1.128,1.128,0,0,0-1.129-1.128Zm0,0" transform="translate(0 -80.802)"/><path class="b" d="M182.772,77.191a.571.571,0,0,0-.155.288l-.8,3.991a.564.564,0,0,0,.554.675.535.535,0,0,0,.111-.011l3.989-.8a.562.562,0,0,0,.289-.155l8.929-8.929L191.7,68.262Zm0,0" transform="translate(-172.191 -64.176)"/><path class="b" d="M397,1.326a2.823,2.823,0,0,0-3.989,0l-1.562,1.562,3.989,3.989L397,5.315a2.821,2.821,0,0,0,0-3.989Zm0,0" transform="translate(-370.738 0)"/></g></svg>