<svg xmlns="http://www.w3.org/2000/svg" width="30.454" height="40.605" viewBox="0 0 30.454 40.605"><defs><style>.a{fill:#b4b4b4;}</style></defs><g transform="translate(-64)"><g transform="translate(64)"><path class="a" d="M93.608,15.227H91.07V11.843a11.843,11.843,0,0,0-23.686,0v3.384H64.846a.845.845,0,0,0-.846.846V37.222a3.387,3.387,0,0,0,3.384,3.384H91.07a3.387,3.387,0,0,0,3.384-3.384V16.073A.845.845,0,0,0,93.608,15.227ZM81.76,32.9a.846.846,0,0,1-.841.939H77.535a.846.846,0,0,1-.841-.939l.534-4.8a3.347,3.347,0,0,1-1.385-2.721,3.384,3.384,0,1,1,6.768,0A3.347,3.347,0,0,1,81.226,28.1Zm4.235-17.671H72.459V11.843a6.768,6.768,0,0,1,13.535,0Z" transform="translate(-64)"/></g></g></svg>