<svg xmlns="http://www.w3.org/2000/svg" width="29.483" height="21.897" viewBox="0 0 29.483 21.897"><defs><style>.a{fill:#fff;}</style></defs><g transform="translate(0 -10.003)"><g transform="translate(0 10.003)"><g transform="translate(0 0)"><path class="a" d="M11.056,20.951a3.69,3.69,0,0,1,3.685-3.685h4.914V11.231A1.228,1.228,0,0,0,18.427,10H1.228A1.228,1.228,0,0,0,0,11.231v19.44A1.228,1.228,0,0,0,1.228,31.9h17.2a1.228,1.228,0,0,0,1.228-1.228V24.637H14.741A3.69,3.69,0,0,1,11.056,20.951Z" transform="translate(0 -10.003)"/><path class="a" d="M250.361,156.248l.01-.014c.021-.027.042-.054.06-.082.009-.013.016-.027.025-.041s.025-.04.036-.062.017-.035.025-.053.018-.036.026-.055.015-.041.022-.061.013-.034.018-.051.013-.048.019-.073.008-.028.01-.043c.007-.033.011-.067.015-.1,0-.006,0-.011,0-.017a1.233,1.233,0,0,0,0-.248c0-.006,0-.012,0-.017,0-.034-.009-.068-.015-.1,0-.014-.007-.028-.01-.043s-.011-.049-.019-.073-.012-.034-.018-.051-.014-.041-.022-.061-.017-.037-.026-.055-.016-.035-.025-.053-.024-.041-.036-.062-.016-.027-.025-.041c-.019-.028-.039-.055-.06-.082l-.01-.014a1.218,1.218,0,0,0-.088-.1l-4.909-4.909a1.228,1.228,0,1,0-1.737,1.737l2.817,2.817H235.9a1.228,1.228,0,0,0,0,2.457h10.548l-2.817,2.817a1.228,1.228,0,1,0,1.737,1.737l4.909-4.909A1.2,1.2,0,0,0,250.361,156.248Z" transform="translate(-221.154 -144.523)"/></g></g></g></svg>