<svg xmlns="http://www.w3.org/2000/svg" width="220.831" height="93.728" viewBox="0 0 220.831 93.728"><defs><style>.a{fill:#fff;}.b{fill:#1976d2;}</style></defs><g transform="translate(-948.911 -828.04)"><path class="a" d="M-80.726-9.5a23.641,23.641,0,0,0-.1,2.62q0,2.109.1,3.1A4.577,4.577,0,0,0-79.569-.942,4.062,4.062,0,0,0-76.439.164a4.977,4.977,0,0,0,3.113-.9,3.355,3.355,0,0,0,1.174-2.841H-75.01a.883.883,0,0,1-.646-.272.883.883,0,0,1-.272-.646V-8.1a.883.883,0,0,1,.272-.646.883.883,0,0,1,.646-.272h8.234a.883.883,0,0,1,.646.272.883.883,0,0,1,.272.646v4.355A8.819,8.819,0,0,1-67.253,1.2a9.108,9.108,0,0,1-3.794,3.266,12.41,12.41,0,0,1-5.393,1.14,11.625,11.625,0,0,1-5.512-1.242,9.26,9.26,0,0,1-3.64-3.334A9.669,9.669,0,0,1-87.02-3.613q-.068-1.633-.068-2.688,0-1.259.068-3.368a9.4,9.4,0,0,1,1.395-4.644,9.233,9.233,0,0,1,3.658-3.334,11.727,11.727,0,0,1,5.529-1.242,12.2,12.2,0,0,1,5.359,1.123,9.916,9.916,0,0,1,3.64,2.824,6.117,6.117,0,0,1,1.412,3.3.6.6,0,0,1-.2.527.778.778,0,0,1-.544.221H-71.3a1.029,1.029,0,0,1-.7-.221,6.98,6.98,0,0,1-.663-.7A4.7,4.7,0,0,0-74.109-13a5.039,5.039,0,0,0-2.331-.442Q-80.284-13.445-80.726-9.5Zm18.134-2.007a.883.883,0,0,1,.272-.646.883.883,0,0,1,.646-.272h4.287a.883.883,0,0,1,.646.272.883.883,0,0,1,.272.646V-2.9a3.721,3.721,0,0,0,.68,2.382,2.539,2.539,0,0,0,2.109.851q2.756,0,2.756-3.232v-8.608a.883.883,0,0,1,.272-.646A.883.883,0,0,1-50-12.425h4.287a.883.883,0,0,1,.646.272.883.883,0,0,1,.272.646V4.349A.883.883,0,0,1-45.07,5a.883.883,0,0,1-.646.272h-3.947A.883.883,0,0,1-50.309,5a.883.883,0,0,1-.272-.646V3.566A5.694,5.694,0,0,1-52.4,5.029a6.462,6.462,0,0,1-2.977.578,7.1,7.1,0,0,1-5.308-1.939q-1.905-1.939-1.905-5.818ZM-30.712-6.3q0-1.871-1.973-1.871a2.723,2.723,0,0,0-1.837.612,1.2,1.2,0,0,1-.544.34,2.863,2.863,0,0,1-.68.068h-4.321a.8.8,0,0,1-.561-.2.615.615,0,0,1-.187-.544,3.861,3.861,0,0,1,1.174-2.194A8.314,8.314,0,0,1-36.734-12a10.426,10.426,0,0,1,4.049-.766q4.049,0,6.073,1.837A6.376,6.376,0,0,1-24.588-5.96V4.349A.883.883,0,0,1-24.86,5a.883.883,0,0,1-.646.272h-4.287A.883.883,0,0,1-30.44,5a.883.883,0,0,1-.272-.646V3.4a5.816,5.816,0,0,1-2.109,1.65,7.445,7.445,0,0,1-3.1.561,6.331,6.331,0,0,1-4.474-1.5A5.045,5.045,0,0,1-42.008.232a4.641,4.641,0,0,1,1.769-3.743A11.9,11.9,0,0,1-34.693-5.62Zm-3.13,4.525a3.368,3.368,0,0,0-1.5.6,1.276,1.276,0,0,0-.544,1.038q0,1.157,1.633,1.157A3.551,3.551,0,0,0-31.733.062a3.047,3.047,0,0,0,1.021-2.314ZM-8.461-12.425a.883.883,0,0,1,.646.272.883.883,0,0,1,.272.646V-8.07a.883.883,0,0,1-.272.646.883.883,0,0,1-.646.272h-3.1a3.157,3.157,0,0,0-2.331.8,3.157,3.157,0,0,0-.8,2.331v8.37A.883.883,0,0,1-14.959,5a.883.883,0,0,1-.646.272h-4.287A.883.883,0,0,1-20.539,5a.883.883,0,0,1-.272-.646V-11.506a.883.883,0,0,1,.272-.646.883.883,0,0,1,.646-.272h3.947a.883.883,0,0,1,.646.272.883.883,0,0,1,.272.646v.783a6.261,6.261,0,0,1,4.525-1.7ZM6.169-17.97a.883.883,0,0,1,.272-.646.883.883,0,0,1,.646-.272h4.287a.883.883,0,0,1,.646.272.883.883,0,0,1,.272.646V4.349a.93.93,0,0,1-.919.919H7.258a.93.93,0,0,1-.919-.919V3.566A8.354,8.354,0,0,1,5.3,4.621a4.2,4.2,0,0,1-1.395.7,7.656,7.656,0,0,1-2.3.289A7.571,7.571,0,0,1-3.749,3.634,7.96,7.96,0,0,1-6.011-2.184l-.034-1.395.034-1.361a8.059,8.059,0,0,1,2.246-5.835,7.519,7.519,0,0,1,5.376-1.99,5.807,5.807,0,0,1,2.858.612,5.378,5.378,0,0,1,1.7,1.429ZM.079-2.626A3.515,3.515,0,0,0,.913-.483,2.842,2.842,0,0,0,3.141.334,2.77,2.77,0,0,0,5.268-.448a3.511,3.511,0,0,0,.9-1.939,7.014,7.014,0,0,0,.068-1.191,7.014,7.014,0,0,0-.068-1.191,3.324,3.324,0,0,0-.885-1.922,2.793,2.793,0,0,0-2.143-.8,2.842,2.842,0,0,0-2.229.817A3.515,3.515,0,0,0,.079-4.531q-.034.34-.034.953T.079-2.626ZM22.364,4.349a.93.93,0,0,1-.919.919H17.159a.93.93,0,0,1-.919-.919V-11.506a.883.883,0,0,1,.272-.646.883.883,0,0,1,.646-.272h4.287a.883.883,0,0,1,.646.272.883.883,0,0,1,.272.646Zm21.707-6.6a7.836,7.836,0,0,1-1.259,3.964A8.15,8.15,0,0,1,39.58,4.553a10.371,10.371,0,0,1-4.763,1.055,10.371,10.371,0,0,1-4.763-1.055,8.15,8.15,0,0,1-3.232-2.841,7.836,7.836,0,0,1-1.259-3.964l-.034-1.327.034-1.293a7.681,7.681,0,0,1,1.225-3.981,8.078,8.078,0,0,1,3.249-2.858,10.476,10.476,0,0,1,4.78-1.055A10.476,10.476,0,0,1,39.6-11.71a8.078,8.078,0,0,1,3.249,2.858,7.681,7.681,0,0,1,1.225,3.981q.034.34.034,1.293Q44.105-2.592,44.071-2.252ZM34.817.334A3.206,3.206,0,0,0,37.011-.4a2.872,2.872,0,0,0,.936-2.024q.068-.68.068-1.157t-.068-1.157a2.872,2.872,0,0,0-.936-2.024,3.206,3.206,0,0,0-2.194-.731,3.206,3.206,0,0,0-2.194.731,2.872,2.872,0,0,0-.936,2.024q-.034.34-.034,1.157t.034,1.157A2.872,2.872,0,0,0,32.622-.4,3.206,3.206,0,0,0,34.817.334Zm-1.7-16.671a.879.879,0,0,0-.612.187,2.067,2.067,0,0,0-.408.6,3.237,3.237,0,0,1-.306.425.436.436,0,0,1-.34.153H28.863a.611.611,0,0,1-.476-.187.658.658,0,0,1-.17-.459,5.816,5.816,0,0,1,.425-2.16,4.226,4.226,0,0,1,1.293-1.769,3.235,3.235,0,0,1,2.092-.7,4.6,4.6,0,0,1,1.667.255,6.567,6.567,0,0,1,1.293.7,4.1,4.1,0,0,0,.783.442,2,2,0,0,0,.749.136.879.879,0,0,0,.612-.187,2.067,2.067,0,0,0,.408-.6,3.237,3.237,0,0,1,.306-.425.436.436,0,0,1,.34-.153h2.586a.611.611,0,0,1,.476.187.658.658,0,0,1,.17.459,5.053,5.053,0,0,1-.493,2.126,4.967,4.967,0,0,1-1.361,1.786,3,3,0,0,1-1.956.714,4.6,4.6,0,0,1-1.667-.255,6.567,6.567,0,0,1-1.293-.7,4.1,4.1,0,0,0-.783-.442A2,2,0,0,0,33.116-16.337Zm19.461,14.7A2.27,2.27,0,0,0,53.5.4a3.773,3.773,0,0,0,2.143.612A5.037,5.037,0,0,0,57.2.81,3.159,3.159,0,0,0,58.259.232,3.547,3.547,0,0,1,58.8-.159a1.4,1.4,0,0,1,.578-.085H63.8a.736.736,0,0,1,.544.2.736.736,0,0,1,.2.544,3.613,3.613,0,0,1-1.021,1.922A8.807,8.807,0,0,1,60.5,4.638a11.109,11.109,0,0,1-4.865.97,9.1,9.1,0,0,1-6.788-2.433,9.2,9.2,0,0,1-2.4-6.754,10.234,10.234,0,0,1,1.072-4.763,7.757,7.757,0,0,1,3.147-3.249,9.935,9.935,0,0,1,4.967-1.174,9.376,9.376,0,0,1,5.223,1.344,8,8,0,0,1,3.011,3.47,10.743,10.743,0,0,1,.953,4.44v.953a.883.883,0,0,1-.272.646.883.883,0,0,1-.646.272ZM58.7-5.416a3.218,3.218,0,0,0-.936-1.956,2.874,2.874,0,0,0-2.126-.8,2.874,2.874,0,0,0-2.126.8,3.218,3.218,0,0,0-.936,1.956ZM72.685-1.639A7.162,7.162,0,0,1,68.7-3.562a5.143,5.143,0,0,1-1.395-3.726,4.3,4.3,0,0,1,1-2.773,6.789,6.789,0,0,1,2.824-1.973,11.01,11.01,0,0,1,4.134-.731,11.665,11.665,0,0,1,4.134.7,8.157,8.157,0,0,1,2.943,1.786A3.686,3.686,0,0,1,83.538-8a.756.756,0,0,1-.255.646.94.94,0,0,1-.663.272H78.571a1.588,1.588,0,0,1-.885-.374,3.573,3.573,0,0,0-.953-.527,4.442,4.442,0,0,0-1.463-.187,3.157,3.157,0,0,0-1.327.238.763.763,0,0,0-.51.714.879.879,0,0,0,.187.612,1.269,1.269,0,0,0,.68.306q.493.1,1.718.272l2.109.34a7.63,7.63,0,0,1,4.44,2.024A5.157,5.157,0,0,1,84.048.028a4.348,4.348,0,0,1-1.038,2.807,6.956,6.956,0,0,1-2.994,2.024,12.882,12.882,0,0,1-4.61.749,12.265,12.265,0,0,1-4.44-.731,7.372,7.372,0,0,1-2.892-1.854A3.97,3.97,0,0,1,66.969.742.756.756,0,0,1,67.224.1a.94.94,0,0,1,.663-.272h4.219a.8.8,0,0,1,.391.085A1.728,1.728,0,0,1,72.855.2a3.279,3.279,0,0,0,.919.6,4.408,4.408,0,0,0,1.633.221A4.871,4.871,0,0,0,77.193.725q.732-.289.732-.766A.718.718,0,0,0,77.4-.772a15.856,15.856,0,0,0-2.263-.459ZM105.755-17.97a.883.883,0,0,1,.272-.646.883.883,0,0,1,.646-.272h4.287a.883.883,0,0,1,.646.272.883.883,0,0,1,.272.646V4.349a.93.93,0,0,1-.919.919h-4.117a.93.93,0,0,1-.919-.919V3.566a8.356,8.356,0,0,1-1.038,1.055,4.2,4.2,0,0,1-1.395.7,7.656,7.656,0,0,1-2.3.289,7.571,7.571,0,0,1-5.359-1.973,7.96,7.96,0,0,1-2.263-5.818l-.034-1.395.034-1.361a8.059,8.059,0,0,1,2.246-5.835,7.519,7.519,0,0,1,5.376-1.99,5.807,5.807,0,0,1,2.858.612,5.377,5.377,0,0,1,1.7,1.429ZM99.665-2.626A3.515,3.515,0,0,0,100.5-.483a2.842,2.842,0,0,0,2.229.817,2.77,2.77,0,0,0,2.126-.783,3.511,3.511,0,0,0,.9-1.939,7.013,7.013,0,0,0,.068-1.191,7.013,7.013,0,0,0-.068-1.191,3.324,3.324,0,0,0-.885-1.922,2.793,2.793,0,0,0-2.143-.8,2.842,2.842,0,0,0-2.229.817,3.515,3.515,0,0,0-.834,2.143q-.034.34-.034.953T99.665-2.626Zm26.3-3.675q0-1.871-1.973-1.871a2.723,2.723,0,0,0-1.837.612,1.2,1.2,0,0,1-.544.34,2.863,2.863,0,0,1-.68.068h-4.321a.8.8,0,0,1-.561-.2.615.615,0,0,1-.187-.544,3.861,3.861,0,0,1,1.174-2.194A8.314,8.314,0,0,1,119.943-12a10.426,10.426,0,0,1,4.049-.766q4.049,0,6.073,1.837a6.376,6.376,0,0,1,2.024,4.967V4.349a.93.93,0,0,1-.919.919h-4.287a.93.93,0,0,1-.919-.919V3.4a5.816,5.816,0,0,1-2.109,1.65,7.445,7.445,0,0,1-3.1.561,6.331,6.331,0,0,1-4.474-1.5A5.045,5.045,0,0,1,114.669.232a4.641,4.641,0,0,1,1.769-3.743,11.9,11.9,0,0,1,5.546-2.109Zm-3.13,4.525a3.368,3.368,0,0,0-1.5.6,1.276,1.276,0,0,0-.544,1.038q0,1.157,1.633,1.157a3.551,3.551,0,0,0,2.518-.953,3.047,3.047,0,0,0,1.021-2.314ZM-85.155,55.672a1.374,1.374,0,0,1-1.006-.423,1.374,1.374,0,0,1-.423-1.006V16.273a1.374,1.374,0,0,1,.423-1.006,1.374,1.374,0,0,1,1.006-.423h6.933a1.374,1.374,0,0,1,1.006.423,1.374,1.374,0,0,1,.423,1.006v37.97a1.374,1.374,0,0,1-.423,1.006,1.374,1.374,0,0,1-1.006.423Zm43.346-1.429a1.374,1.374,0,0,1-.423,1.006,1.374,1.374,0,0,1-1.006.423h-6.669a1.374,1.374,0,0,1-1.006-.423,1.374,1.374,0,0,1-.423-1.006V40.853a5.527,5.527,0,0,0-1.138-3.678,4.281,4.281,0,0,0-3.467-1.35,4.257,4.257,0,0,0-3.414,1.323,5.506,5.506,0,0,0-1.138,3.7v13.39a1.374,1.374,0,0,1-.423,1.006,1.374,1.374,0,0,1-1.006.423h-6.669a1.374,1.374,0,0,1-1.006-.423,1.374,1.374,0,0,1-.423-1.006V29.58a1.374,1.374,0,0,1,.423-1.006,1.374,1.374,0,0,1,1.006-.423h6.4a1.374,1.374,0,0,1,1.006.423,1.374,1.374,0,0,1,.423,1.006V30.8q2.487-3.175,7.462-3.175,5.345,0,8.415,3.017t3.07,9.05Zm14.29-10.479a4.454,4.454,0,0,0,1.455,3.07A4.839,4.839,0,0,0-22.7,48a5.866,5.866,0,0,0,2.593-.476,4.1,4.1,0,0,0,1.588-1.429,2.815,2.815,0,0,1,.662-.794,1.391,1.391,0,0,1,.873-.265h6.933a1.42,1.42,0,0,1,1.006.4,1.233,1.233,0,0,1,.423.926,8.194,8.194,0,0,1-1.323,3.837,11.964,11.964,0,0,1-4.472,4.155A16.227,16.227,0,0,1-22.7,56.2a16.623,16.623,0,0,1-7.171-1.508,12.8,12.8,0,0,1-5.134-4.26,11.465,11.465,0,0,1-2.038-6.4l-.053-2.117.053-2.117a11.465,11.465,0,0,1,2.038-6.4,12.8,12.8,0,0,1,5.134-4.26A16.623,16.623,0,0,1-22.7,27.622a16.341,16.341,0,0,1,8.2,1.8A11.723,11.723,0,0,1-10.054,33.5,9.355,9.355,0,0,1-8.625,37.36a1.176,1.176,0,0,1-.4,1.006,1.463,1.463,0,0,1-1.032.423h-6.933a1.391,1.391,0,0,1-.873-.265,2.815,2.815,0,0,1-.662-.794A4.1,4.1,0,0,0-20.11,36.3a5.866,5.866,0,0,0-2.593-.476,4.839,4.839,0,0,0-3.361,1.164,4.454,4.454,0,0,0-1.455,3.07q-.053.529-.053,1.852T-27.52,43.764ZM5.453,54.243a1.374,1.374,0,0,1-.423,1.006,1.374,1.374,0,0,1-1.006.423H-2.645a1.374,1.374,0,0,1-1.006-.423,1.374,1.374,0,0,1-.423-1.006V23.3A1.374,1.374,0,0,1-3.65,22.3a1.374,1.374,0,0,1,1.006-.423H4.024a1.374,1.374,0,0,1,1.006.423A1.374,1.374,0,0,1,5.453,23.3ZM11.327,29.58a1.446,1.446,0,0,1,1.429-1.429h6.669a1.446,1.446,0,0,1,1.429,1.429V42.97a5.788,5.788,0,0,0,1.059,3.7A3.949,3.949,0,0,0,25.194,48q4.287,0,4.287-5.028V29.58a1.446,1.446,0,0,1,1.429-1.429h6.669a1.446,1.446,0,0,1,1.429,1.429V54.243a1.446,1.446,0,0,1-1.429,1.429H31.439a1.446,1.446,0,0,1-1.429-1.429V53.026A8.857,8.857,0,0,1,27.178,55.3a10.052,10.052,0,0,1-4.631.9q-5.293,0-8.256-3.017t-2.964-9.05ZM52.556,44.928a11.141,11.141,0,0,1-6.192-2.99,8,8,0,0,1-2.17-5.8,6.692,6.692,0,0,1,1.561-4.313,10.561,10.561,0,0,1,4.393-3.07,17.127,17.127,0,0,1,6.43-1.138,18.146,18.146,0,0,1,6.43,1.085,12.688,12.688,0,0,1,4.578,2.779,5.734,5.734,0,0,1,1.852,3.546,1.177,1.177,0,0,1-.4,1.006,1.463,1.463,0,0,1-1.032.423h-6.3a2.47,2.47,0,0,1-1.376-.582,5.557,5.557,0,0,0-1.482-.82,6.91,6.91,0,0,0-2.276-.291,4.911,4.911,0,0,0-2.064.37,1.188,1.188,0,0,0-.794,1.111,1.368,1.368,0,0,0,.291.953,1.974,1.974,0,0,0,1.059.476q.767.159,2.673.423l3.281.529a11.869,11.869,0,0,1,6.907,3.149,8.022,8.022,0,0,1,2.3,5.742,6.764,6.764,0,0,1-1.614,4.366,10.821,10.821,0,0,1-4.657,3.149A20.038,20.038,0,0,1,56.79,56.2a19.079,19.079,0,0,1-6.907-1.138,11.467,11.467,0,0,1-4.5-2.884,6.175,6.175,0,0,1-1.72-3.546,1.176,1.176,0,0,1,.4-1.006,1.463,1.463,0,0,1,1.032-.423h6.563a1.244,1.244,0,0,1,.609.132,2.688,2.688,0,0,1,.556.45,5.1,5.1,0,0,0,1.429.926,6.858,6.858,0,0,0,2.54.344,7.577,7.577,0,0,0,2.779-.45q1.138-.45,1.138-1.191a1.117,1.117,0,0,0-.82-1.138,24.665,24.665,0,0,0-3.52-.714Zm38.106-7.251q0-2.911-3.07-2.911a4.236,4.236,0,0,0-2.858.953,1.873,1.873,0,0,1-.847.529,4.453,4.453,0,0,1-1.059.106H76.108a1.237,1.237,0,0,1-.873-.318.957.957,0,0,1-.291-.847,6.006,6.006,0,0,1,1.826-3.414,12.933,12.933,0,0,1,4.525-2.964,16.218,16.218,0,0,1,6.3-1.191q6.3,0,9.447,2.858a9.918,9.918,0,0,1,3.149,7.727V54.243a1.446,1.446,0,0,1-1.429,1.429H92.091a1.446,1.446,0,0,1-1.429-1.429V52.761a9.047,9.047,0,0,1-3.281,2.567,11.581,11.581,0,0,1-4.816.873,9.849,9.849,0,0,1-6.96-2.329,7.848,7.848,0,0,1-2.514-6.033,7.219,7.219,0,0,1,2.752-5.822q2.752-2.276,8.627-3.281Zm-4.869,7.039a5.239,5.239,0,0,0-2.329.926,1.985,1.985,0,0,0-.847,1.614q0,1.8,2.54,1.8a5.523,5.523,0,0,0,3.916-1.482,4.74,4.74,0,0,0,1.588-3.6Zm-1.27-22.652a1.368,1.368,0,0,0-.953.291,3.215,3.215,0,0,0-.635.926,5.035,5.035,0,0,1-.476.662.679.679,0,0,1-.529.238H77.907a.951.951,0,0,1-.741-.291,1.023,1.023,0,0,1-.265-.714,9.047,9.047,0,0,1,.662-3.361,6.574,6.574,0,0,1,2.011-2.752,5.032,5.032,0,0,1,3.255-1.085,7.155,7.155,0,0,1,2.593.4,10.215,10.215,0,0,1,2.011,1.085,6.381,6.381,0,0,0,1.217.688,3.108,3.108,0,0,0,1.164.212,1.368,1.368,0,0,0,.953-.291,3.215,3.215,0,0,0,.635-.926,5.035,5.035,0,0,1,.476-.662.679.679,0,0,1,.529-.238h4.022a.951.951,0,0,1,.741.291,1.023,1.023,0,0,1,.265.714,7.86,7.86,0,0,1-.767,3.308,7.726,7.726,0,0,1-2.117,2.779,4.661,4.661,0,0,1-3.043,1.111,7.155,7.155,0,0,1-2.593-.4A10.214,10.214,0,0,1,86.9,22.965a6.382,6.382,0,0,0-1.217-.688A3.108,3.108,0,0,0,84.523,22.065ZM133.69,43.976a12.19,12.19,0,0,1-1.958,6.166,12.678,12.678,0,0,1-5.028,4.419,17.551,17.551,0,0,1-14.819,0,12.678,12.678,0,0,1-5.028-4.419,12.19,12.19,0,0,1-1.958-6.166l-.053-2.064L104.9,39.9a11.949,11.949,0,0,1,1.905-6.192,12.565,12.565,0,0,1,5.054-4.446,17.671,17.671,0,0,1,14.872,0,12.565,12.565,0,0,1,5.054,4.446A11.949,11.949,0,0,1,133.69,39.9q.053.529.053,2.011Q133.743,43.447,133.69,43.976ZM119.294,48a4.987,4.987,0,0,0,3.414-1.138,4.467,4.467,0,0,0,1.455-3.149q.106-1.058.106-1.8t-.106-1.8a4.467,4.467,0,0,0-1.455-3.149,5.689,5.689,0,0,0-6.827,0,4.467,4.467,0,0,0-1.455,3.149q-.053.529-.053,1.8t.053,1.8a4.467,4.467,0,0,0,1.455,3.149A4.987,4.987,0,0,0,119.294,48Z" transform="translate(1036 865.566)"/><path class="b" d="M11.492,0l2.873,8.619,8.619,2.873-8.619,2.873-2.873,8.619L8.619,14.365,0,11.492,8.619,8.619Z" transform="translate(1043.957 828.04)"/></g></svg>