<svg xmlns="http://www.w3.org/2000/svg" width="19.273" height="21.928" viewBox="0 0 19.273 21.928"><defs><style>.a{fill:#b4b4b4;}</style></defs><g transform="translate(3.855)"><path class="a" d="M126.782,0a5.782,5.782,0,1,0,5.782,5.782A5.788,5.788,0,0,0,126.782,0Z" transform="translate(-121)"/></g><g transform="translate(0 12.849)"><path class="a" d="M47.83,302.492A8.242,8.242,0,0,0,41.921,300h-2.57a8.242,8.242,0,0,0-5.909,2.492A8.426,8.426,0,0,0,31,308.437a.642.642,0,0,0,.642.642H49.63a.642.642,0,0,0,.642-.642A8.426,8.426,0,0,0,47.83,302.492Z" transform="translate(-31 -300)"/></g></svg>