<svg xmlns="http://www.w3.org/2000/svg" width="79.176" height="161.351" viewBox="0 0 79.176 161.351"><defs><style>.a{fill:#2196f3;}.b{fill:#6ec7f5;}.c,.e{fill:#fff;}.d{fill:#1976d2;}.e{font-size:14px;font-family:Rubik-Bold, Rubik;font-weight:700;}</style></defs><g transform="translate(-140.412 -135.325)"><g transform="translate(140.412 135.325)"><path class="a" d="M226.669,204.3H172.175a12.36,12.36,0,0,1-12.121-12.229l.58-137.247a11.926,11.926,0,0,1,11.98-11.875l54.745.253a11.925,11.925,0,0,1,11.87,11.976l-.58,137.247A11.925,11.925,0,0,1,226.669,204.3Z" transform="translate(-160.054 -42.945)"/></g><rect class="b" width="60.948" height="16.253" rx="8.126" transform="translate(149.389 221.719)"/><rect class="c" width="60.948" height="3.047" rx="1.524" transform="translate(149.389 191.67)"/><rect class="c" width="41.648" height="3.047" rx="1.524" transform="translate(149.389 198.78)"/><rect class="d" width="11.059" height="3.047" rx="1.524" transform="translate(174.616 178.077)"/><rect class="c" width="55.869" height="3.047" rx="1.524" transform="translate(149.389 205.891)"/><rect class="d" width="60.948" height="15.237" rx="7.619" transform="translate(149.389 242.035)"/><rect class="b" width="59.886" height="15.454" rx="7.727" transform="translate(150.248 262.22)"/><text class="e" transform="translate(163 164)"><tspan x="0" y="0">QUIZ</tspan></text><path class="c" d="M5.076,6.054,3.128,4.106,1.18,6.054A.691.691,0,0,1,.2,5.077L2.15,3.129.2,1.181A.691.691,0,0,1,1.18.2L3.128,2.151,5.076.2a.691.691,0,0,1,.978.978L4.106,3.129,6.054,5.077a.691.691,0,0,1-.978.978Zm0,0" transform="translate(177.148 226.249)"/><path class="c" d="M5.076,6.054,3.128,4.106,1.18,6.054A.691.691,0,0,1,.2,5.077L2.15,3.129.2,1.181A.691.691,0,0,1,1.18.2L3.128,2.151,5.076.2a.691.691,0,0,1,.978.978L4.106,3.129,6.054,5.077a.691.691,0,0,1-.978.978Zm0,0" transform="translate(177.148 266.856)"/><path class="c" d="M328,178.676c-.023,0-.047,0-.071,0a.749.749,0,0,1-.578-.373,15.78,15.78,0,0,0-1.872-2.522.749.749,0,1,1,1.094-1.023,17.829,17.829,0,0,1,1.536,1.939c1.327-1.413,4.4-4.447,7.46-5.774a.749.749,0,0,1,.6,1.374c-3.661,1.587-7.558,6.076-7.6,6.122A.749.749,0,0,1,328,178.676Z" transform="translate(-150.631 74.819)"/></g></svg>