<svg xmlns="http://www.w3.org/2000/svg" width="164.823" height="161.351" viewBox="0 0 164.823 161.351"><defs><style>.a{fill:#1976d2;}.b{fill:#2196f3;}.c{fill:#fafafa;}</style></defs><g transform="translate(0 -1.54)"><g transform="translate(0 91.229)"><path class="a" d="M323.583,298.62h50.163a3.583,3.583,0,0,1,3.583,3.583v57.33a3.583,3.583,0,0,1-3.583,3.583H323.583A3.583,3.583,0,0,1,320,359.533V302.2A3.583,3.583,0,0,1,323.583,298.62Z" transform="translate(-212.507 -291.454)"/><path class="a" d="M3.583,277.287H53.747a3.583,3.583,0,0,1,3.583,3.583v64.5a3.583,3.583,0,0,1-3.583,3.583H3.583A3.583,3.583,0,0,1,0,345.366v-64.5A3.583,3.583,0,0,1,3.583,277.287Z" transform="translate(0 -277.287)"/></g><path class="b" d="M152.916,191.954h57.33a3.583,3.583,0,0,1,3.583,3.583V288.7a3.583,3.583,0,0,1-3.583,3.583h-57.33a3.583,3.583,0,0,1-3.583-3.583V195.537A3.583,3.583,0,0,1,152.916,191.954Z" transform="translate(-99.17 -129.39)"/><g transform="translate(12.023 76.883)"><path class="c" d="M391.331,352.036a10.749,10.749,0,0,0-10.749-10.749h-7.166a10.749,10.749,0,0,0-10.749,10.749,3.583,3.583,0,1,0,7.166,0,3.583,3.583,0,0,1,3.583-3.583h7.166a3.583,3.583,0,1,1,0,7.166h-7.166a3.583,3.583,0,1,0,0,7.166h7.166a3.583,3.583,0,1,1,0,7.166h-7.166a3.583,3.583,0,0,1-3.583-3.583,3.583,3.583,0,0,0-7.166,0,10.749,10.749,0,0,0,10.749,10.749h7.166a10.749,10.749,0,0,0,8-17.915A10.7,10.7,0,0,0,391.331,352.036Z" transform="translate(-248.258 -305.443)"/><path class="c" d="M71.319,334.285a14.333,14.333,0,0,0-28.665,0,3.583,3.583,0,0,0,7.166,0,7.166,7.166,0,0,1,14.332,0,5.018,5.018,0,0,1-1.483,3.583L43.7,356.83a3.583,3.583,0,0,0,2.537,6.12h21.5a3.583,3.583,0,1,0,0-7.166H54.887l12.849-12.849A12.182,12.182,0,0,0,71.319,334.285Z" transform="translate(-42.647 -291.276)"/><path class="c" d="M231.248,277.592h-3.583V238.178a3.583,3.583,0,0,0-2.544-3.433,3.54,3.54,0,0,0-4.02,1.433l-7.166,10.749a3.584,3.584,0,0,0,5.962,3.977h0l.6-.9v27.583h-3.584a3.583,3.583,0,1,0,0,7.166h14.333a3.583,3.583,0,0,0,0-7.166Z" transform="translate(-153.693 -234.582)"/></g><path class="a" d="M25.423,0l6.356,17.983,19.067.488-15.139,11.6,5.428,18.285L25.423,37.544,9.711,48.357l5.428-18.285L0,18.471l19.067-.488Z" transform="translate(58.14 1.54)"/></g></svg>