<svg xmlns="http://www.w3.org/2000/svg" width="20.644" height="21.185" viewBox="0 0 20.644 21.185">
  <path id="Icon_awesome-arrow-up" data-name="Icon awesome-arrow-up" d="M1.78,14.424l-1.05-1.05a1.13,1.13,0,0,1,0-1.6L9.918,2.58a1.13,1.13,0,0,1,1.6,0l9.187,9.187a1.13,1.13,0,0,1,0,1.6l-1.05,1.05a1.136,1.136,0,0,1-1.622-.019L12.613,8.708V22.3a1.132,1.132,0,0,1-1.135,1.135H9.965A1.132,1.132,0,0,1,8.83,22.3V8.708L3.4,14.405a1.128,1.128,0,0,1-1.622.019Z" transform="translate(-0.397 -2.246)" fill="#707070"/>
</svg>
