<svg xmlns="http://www.w3.org/2000/svg" width="11.452" height="11.453" viewBox="0 0 11.452 11.453">
  <path id="Path_95" data-name="Path 95" d="M11.035,5.011a.722.722,0,0,0-1.014,0L5.011,10.021a.717.717,0,0,0,1.014,1.014l.209-.212v4.716a.714.714,0,0,0,.716.716H8.381a.714.714,0,0,0,.716-.716V14.108a.714.714,0,0,1,.716-.716h1.432a.714.714,0,0,1,.716.716v1.432a.714.714,0,0,0,.716.716h1.432a.714.714,0,0,0,.716-.716V10.824l.209.212a.717.717,0,1,0,1.014-1.014Z" transform="translate(-4.803 -4.802)" fill="#707070"/>
</svg>
