<svg xmlns="http://www.w3.org/2000/svg" width="13.254" height="13.254" viewBox="0 0 13.254 13.254">
  <path id="Icon_awesome-arrow-alt-circle-up" data-name="Icon awesome-arrow-alt-circle-up" d="M.563,7.189a6.627,6.627,0,1,1,6.627,6.627A6.626,6.626,0,0,1,.563,7.189Zm7.8,3.1v-3.1h1.895a.321.321,0,0,0,.227-.548L7.416,3.587a.318.318,0,0,0-.452,0L3.892,6.641a.321.321,0,0,0,.227.548H6.014v3.1a.322.322,0,0,0,.321.321h1.71A.322.322,0,0,0,8.365,10.289Z" transform="translate(13.816 -0.563) rotate(90)" fill="#fff"/>
</svg>
