<svg xmlns="http://www.w3.org/2000/svg" width="18.359" height="18.359" viewBox="0 0 18.359 18.359">
  <path id="Icon_material-my-location" data-name="Icon material-my-location" d="M18.14,9.845a7.506,7.506,0,0,0-6.626-6.626V1.5H9.845V3.219A7.506,7.506,0,0,0,3.219,9.845H1.5v1.669H3.219A7.506,7.506,0,0,0,9.845,18.14v1.719h1.669V18.14a7.506,7.506,0,0,0,6.626-6.626h1.719V9.845Zm-7.46,6.676a5.841,5.841,0,1,1,5.841-5.841,5.946,5.946,0,0,1-2.045,4.442A5.674,5.674,0,0,1,10.679,16.521Z" transform="translate(-1.5 -1.5)" fill="#34518d"/>
</svg>
