<svg xmlns="http://www.w3.org/2000/svg" width="16" height="16" viewBox="0 0 16 16">
  <g id="Group_11" data-name="Group 11" transform="translate(-59 -28)">
    <path id="Subtraction_2" data-name="Subtraction 2" d="M-7370,16a8.009,8.009,0,0,1-8-8,8.01,8.01,0,0,1,8-8,8.009,8.009,0,0,1,8,8A8.008,8.008,0,0,1-7370,16Zm0-13a5.007,5.007,0,0,0-5,5,5.006,5.006,0,0,0,5,5,5.005,5.005,0,0,0,5-5A5.006,5.006,0,0,0-7370,3Z" transform="translate(7437 28)" fill="#34518d" opacity="0.2"/>
    <circle id="Ellipse_15" data-name="Ellipse 15" cx="4" cy="4" r="4" transform="translate(63 32)" fill="#34518d"/>
  </g>
</svg>
