<?xml version="1.0" encoding="UTF-8"?>
<svg xmlns="http://www.w3.org/2000/svg" xmlns:xlink="http://www.w3.org/1999/xlink" width="40px" height="36px" viewBox="0 0 39 36" version="1.1">
<g id="surface1">
<path style=" stroke:none;fill-rule:nonzero;fill:rgb(71.764706%,8.627451%,8.627451%);fill-opacity:1;" d="M 0.746094 27.21875 L 14.375 3.335938 L 14.425781 3.25 C 14.988281 2.316406 15.746094 1.523438 16.648438 0.925781 C 17.511719 0.363281 18.515625 0.0625 19.542969 0.0546875 C 20.570312 0.0546875 21.574219 0.355469 22.433594 0.921875 C 23.335938 1.523438 24.097656 2.320312 24.65625 3.257812 C 24.695312 3.324219 24.734375 3.390625 24.769531 3.464844 L 38.175781 27.058594 L 38.246094 27.199219 C 38.753906 28.214844 39.011719 29.339844 39 30.476562 C 38.996094 31.417969 38.757812 32.339844 38.316406 33.164062 C 37.8125 34.085938 37.042969 34.828125 36.113281 35.289062 L 35.929688 35.375 C 35.015625 35.773438 34.03125 35.964844 33.035156 35.933594 L 5.59375 35.933594 C 5.519531 35.933594 5.453125 35.933594 5.382812 35.933594 C 4.710938 35.929688 4.042969 35.804688 3.414062 35.5625 C 2.414062 35.179688 1.554688 34.492188 0.953125 33.597656 C 0.347656 32.6875 0.015625 31.617188 0 30.515625 C -0.015625 29.554688 0.152344 28.601562 0.5 27.703125 C 0.5625 27.535156 0.644531 27.371094 0.742188 27.21875 Z M 0.746094 27.21875 "/>
<path style=" stroke:none;fill-rule:evenodd;fill:rgb(88.627451%,10.588235%,10.588235%);fill-opacity:1;" d="M 2.855469 28.613281 L 16.550781 4.613281 C 18.210938 1.957031 20.84375 1.890625 22.539062 4.613281 L 36.007812 28.324219 C 37.078125 30.511719 36.546875 33.46875 33.042969 33.394531 L 5.59375 33.394531 C 3.285156 33.453125 1.785156 31.40625 2.851562 28.613281 Z M 2.855469 28.613281 "/>
<path style=" stroke:none;fill-rule:nonzero;fill:rgb(100%,100%,100%);fill-opacity:1;" d="M 18.269531 26.664062 C 18.566406 26.363281 18.957031 26.183594 19.375 26.152344 C 19.632812 26.136719 19.894531 26.175781 20.136719 26.265625 C 20.375 26.359375 20.589844 26.503906 20.769531 26.6875 C 21.074219 26.992188 21.257812 27.398438 21.285156 27.828125 C 21.292969 27.980469 21.285156 28.132812 21.257812 28.28125 C 21.109375 29.15625 20.347656 29.789062 19.46875 29.761719 C 19.222656 29.753906 18.976562 29.699219 18.75 29.59375 C 18.34375 29.402344 18.023438 29.066406 17.855469 28.648438 C 17.800781 28.515625 17.765625 28.378906 17.742188 28.238281 C 17.722656 28.097656 17.714844 27.957031 17.722656 27.816406 C 17.75 27.59375 17.808594 27.375 17.90625 27.171875 C 17.988281 26.984375 18.109375 26.8125 18.265625 26.671875 Z M 20.859375 23.367188 C 20.796875 24.910156 18.222656 24.910156 18.164062 23.367188 C 17.902344 20.726562 17.234375 13.914062 17.257812 11.433594 C 17.28125 10.667969 17.894531 10.210938 18.703125 10.039062 C 19.230469 9.933594 19.769531 9.933594 20.292969 10.039062 C 21.121094 10.21875 21.765625 10.683594 21.765625 11.46875 L 21.765625 11.542969 Z M 20.859375 23.367188 "/>
</g>
</svg>
