<svg id="Icon_ionic-ios-close-circle-outline" data-name="Icon ionic-ios-close-circle-outline" xmlns="http://www.w3.org/2000/svg" width="16.365" height="16.365" viewBox="0 0 16.365 16.365">
  <path id="Path_41" data-name="Path 41" d="M18.477,17.586,16.4,15.513l2.073-2.073a.629.629,0,1,0-.889-.889l-2.073,2.073-2.073-2.073a.629.629,0,1,0-.889.889l2.073,2.073-2.073,2.073a.608.608,0,0,0,0,.889.624.624,0,0,0,.889,0L15.515,16.4l2.073,2.073a.632.632,0,0,0,.889,0A.624.624,0,0,0,18.477,17.586Z" transform="translate(-7.333 -7.331)" fill="#34518d"/>
  <path id="Path_42" data-name="Path 42" d="M11.557,4.476A7.078,7.078,0,1,1,6.55,6.55a7.034,7.034,0,0,1,5.008-2.073m0-1.1a8.182,8.182,0,1,0,8.182,8.182,8.181,8.181,0,0,0-8.182-8.182Z" transform="translate(-3.375 -3.375)" fill="#34518d"/>
</svg>
