<svg xmlns="http://www.w3.org/2000/svg" width="13.365" height="13.365" viewBox="0 0 13.365 13.365">
  <path id="Icon_awesome-route" data-name="Icon awesome-route" d="M10.859,8.353H8.353a.835.835,0,0,1,0-1.671h2.506s2.506-2.793,2.506-4.177a2.506,2.506,0,1,0-5.012,0A5.507,5.507,0,0,0,9.536,5.012H8.353a2.506,2.506,0,0,0,0,5.012h2.506a.835.835,0,0,1,0,1.671H4.842a18.022,18.022,0,0,1-1.235,1.671h7.252a2.506,2.506,0,0,0,0-5.012Zm0-6.683a.835.835,0,1,1-.835.835A.834.834,0,0,1,10.859,1.671ZM2.506,6.683A2.507,2.507,0,0,0,0,9.189c0,1.384,2.506,4.177,2.506,4.177s2.506-2.793,2.506-4.177A2.507,2.507,0,0,0,2.506,6.683Zm0,3.341a.835.835,0,1,1,.835-.835A.834.834,0,0,1,2.506,10.024Z" fill="#34518d"/>
</svg>
