<svg xmlns="http://www.w3.org/2000/svg" xmlns:xlink="http://www.w3.org/1999/xlink" width="58" height="78.476" viewBox="0 0 58 78.476">
  <defs>
    <filter id="ionic-md-pin" x="0" y="0" width="58" height="78.476" filterUnits="userSpaceOnUse">
      <feOffset dy="2" input="SourceAlpha"/>
      <feGaussianBlur stdDeviation="1" result="blur"/>
      <feFlood flood-opacity="0.161"/>
      <feComposite operator="in" in2="blur"/>
      <feComposite in="SourceGraphic"/>
    </filter>
  </defs>
  <g id="place-culture-and-leisure" transform="translate(-154 -246.649)">
    <g transform="matrix(1, 0, 0, 1, 154, 246.65)" filter="url(#ionic-md-pin)">
      <g id="ionic-md-pin-2" data-name="ionic-md-pin" transform="translate(-2.75 -0.25)" fill="#D25656">
        <path d="M 31.75000190734863 72.98777008056641 L 31.3823413848877 72.58885955810547 C 31.31960105895996 72.52079010009766 25.03659248352051 65.6773681640625 18.83817100524902 56.67417907714844 C 15.19294166564941 51.37950897216797 12.28715229034424 46.38159942626953 10.20151233673096 41.81927871704102 C 7.579482078552246 36.08361053466797 6.250001907348633 31.01362037658691 6.250001907348633 26.75016021728516 C 6.250001907348633 23.38834953308105 6.927551746368408 20.12075042724609 8.263812065124512 17.03812026977539 C 9.553192138671875 14.06367969512939 11.39683151245117 11.3894100189209 13.74355220794678 9.08961009979248 C 16.08957099914551 6.79049015045166 18.81715202331543 4.984409809112549 21.85053253173828 3.721539974212646 C 24.99284172058105 2.413320064544678 28.32351112365723 1.75 31.75000190734863 1.75 C 35.17649078369141 1.75 38.50715255737305 2.413320064544678 41.64947128295898 3.721539974212646 C 44.68284225463867 4.984409809112549 47.41043090820312 6.79049015045166 49.75645065307617 9.08961009979248 C 52.1031608581543 11.3894100189209 53.94681167602539 14.06367969512939 55.23618316650391 17.03812026977539 C 56.57245254516602 20.12075042724609 57.25 23.38834953308105 57.25 26.75016021728516 C 57.25 31.01362037658691 55.9205207824707 36.08361053466797 53.29849243164062 41.81927871704102 C 51.21285247802734 46.38159942626953 48.30706024169922 51.37950897216797 44.66183090209961 56.67417907714844 C 38.46341323852539 65.6773681640625 32.18040084838867 72.52079010009766 32.11766052246094 72.58885955810547 L 31.75000190734863 72.98777008056641 Z" stroke="none"/>
        <path d="M 31.75000190734863 2.25 C 17.99937057495117 2.25 6.750003814697266 13.27452850341797 6.750003814697266 26.75016021728516 C 6.750003814697266 45.125 31.75000190734863 72.25 31.75000190734863 72.25 C 31.75000190734863 72.25 56.75 45.125 56.75 26.75016021728516 C 56.75 13.27452850341797 45.5006217956543 2.25 31.75000190734863 2.25 M 31.75000190734863 1.25 C 35.24280166625977 1.25 38.63811111450195 1.926246643066406 41.84164428710938 3.25994873046875 C 44.93405151367188 4.547401428222656 47.7147216796875 6.388633728027344 50.10641098022461 8.732513427734375 C 52.49949264526367 11.07775115966797 54.37975311279297 13.80524826049805 55.69494247436523 16.83926010131836 C 57.0585823059082 19.98503112792969 57.75 23.31953811645508 57.75 26.75016021728516 C 57.75 31.08586120605469 56.40529251098633 36.22578811645508 53.75321960449219 42.02716064453125 C 51.65554046630859 46.61582183837891 48.73532104492188 51.63917922973633 45.07366943359375 56.95771789550781 C 38.85535430908203 65.98979949951172 32.54830169677734 72.85938262939453 32.48532104492188 72.92771911621094 L 31.75000190734863 73.72554016113281 L 31.01468276977539 72.92771911621094 C 30.95170211791992 72.85938262939453 24.6446533203125 65.98979949951172 18.42633056640625 56.95771789550781 C 14.76468276977539 51.63917922973633 11.84446334838867 46.61582183837891 9.746780395507812 42.02716064453125 C 7.094711303710938 36.22578811645508 5.750003814697266 31.08586120605469 5.750003814697266 26.75016021728516 C 5.750003814697266 23.31953811645508 6.441421508789062 19.98503112792969 7.805061340332031 16.83926010131836 C 9.120250701904297 13.80524826049805 11.00050354003906 11.07775115966797 13.39358139038086 8.732513427734375 C 15.78527069091797 6.388633728027344 18.56595230102539 4.547401428222656 21.65836334228516 3.25994873046875 C 24.86188125610352 1.926246643066406 28.2572021484375 1.25 31.75000190734863 1.25 Z" stroke="none" fill="#fff"/>
      </g>
    </g>
    <circle id="Ellipse" cx="17" cy="17" r="17" transform="translate(166 256)" fill="#fff"/>
    <g id="culture-and-leisure" transform="translate(-0.944 -1.409)">
      <path id="art-gallery" d="M4.657,6C2.371,6,1,7.833,1,8.75s.457,1.6,1.371,1.6,1.372.229,1.372.917a1.564,1.564,0,0,0,1.6,1.6c2.971,0,4.343-1.6,4.343-3.208C9.685,6.917,7.4,6,4.657,6Zm-.571.917a.573.573,0,1,1-.571.573A.572.572,0,0,1,4.086,6.917Zm1.828,0a.573.573,0,1,1-.571.573A.572.572,0,0,1,5.914,6.917Zm1.829.917a.573.573,0,1,1-.571.573A.572.572,0,0,1,7.742,7.833Zm-5.257.459a.573.573,0,1,1-.571.573A.572.572,0,0,1,2.486,8.292Zm2.857,2.292a.688.688,0,1,1-.686.688.686.686,0,0,1,.686-.688Z" transform="translate(173.171 259.409)"/>
      <path id="Icon_awesome-music" data-name="Icon awesome-music" d="M6.234.482c0-.327-.257-.558-.507-.46l-3.9,1.425a.483.483,0,0,0-.273.46V5.849a1.379,1.379,0,0,0-.39-.059A1.082,1.082,0,0,0,0,6.755a1.082,1.082,0,0,0,1.169.965,1.082,1.082,0,0,0,1.169-.965V3.231L5.455,2.1V4.884a1.379,1.379,0,0,0-.39-.059A1.082,1.082,0,0,0,3.9,5.79a1.082,1.082,0,0,0,1.169.965A1.082,1.082,0,0,0,6.234,5.79V.482Z" transform="translate(186.739 265.409)"/>
      <path id="movie-theater" d="M8.749,3.846H7.8l.958-.919L7.807,2H6.466l.961.919-.985.928H5.3l.98-.919L5.314,2H3.949l.961.919-.987.928H2.958l.98-.919L2.969,2H2V9.72H9.72V2H8.773l.947.924ZM8.713,8.713H3.007V7.706H8.713Zm0-1.846H3.007V5.86H8.713Z" transform="translate(172.654 273.871)"/>
      <path id="Icon_ionic-ios-football" data-name="Icon ionic-ios-football" d="M7.235,3.375a3.86,3.86,0,1,0,3.86,3.86A3.86,3.86,0,0,0,7.235,3.375ZM9.6,4.873a3.315,3.315,0,0,1,.419.51.068.068,0,0,1,.007.065l-.267.766a.074.074,0,0,1-.039.043l-1.067.486a.075.075,0,0,1-.078-.011l-1.05-.883A.076.076,0,0,1,7.5,5.791V4.62a.074.074,0,0,1,.033-.061l.713-.484a.073.073,0,0,1,.065-.009A3.382,3.382,0,0,1,9.6,4.873ZM8.226,10.4a.069.069,0,0,1-.048.045,3.336,3.336,0,0,1-.943.134,3.394,3.394,0,0,1-.943-.134.077.077,0,0,1-.048-.045l-.3-.8a.078.078,0,0,1,0-.061l.414-.785a.075.075,0,0,1,.065-.039H8.046a.073.073,0,0,1,.065.039l.414.785a.078.078,0,0,1,0,.061ZM6.975,4.624V5.8a.076.076,0,0,1-.026.058L5.9,6.734a.075.075,0,0,1-.078.011L4.752,6.259a.073.073,0,0,1-.039-.043l-.267-.765a.073.073,0,0,1,.007-.065A3.365,3.365,0,0,1,6.164,4.073a.073.073,0,0,1,.065.009l.713.484A.061.061,0,0,1,6.975,4.624ZM3.926,7.385l.67-.579a.074.074,0,0,1,.08-.011l.972.442a.074.074,0,0,1,.041.05L5.96,8.351a.089.089,0,0,1-.006.054l-.431.815a.072.072,0,0,1-.067.039L4.6,9.247a.077.077,0,0,1-.059-.03A3.317,3.317,0,0,1,3.9,7.447.081.081,0,0,1,3.926,7.385ZM8.944,9.217,8.516,8.4a.068.068,0,0,1-.006-.054l.271-1.063a.074.074,0,0,1,.041-.05L9.794,6.8a.078.078,0,0,1,.08.011l.67.579a.075.075,0,0,1,.026.061,3.307,3.307,0,0,1-.644,1.77.072.072,0,0,1-.059.03l-.856.011A.081.081,0,0,1,8.944,9.217Z" transform="translate(182.621 272.496)"/>
    </g>
  </g>
</svg>
