<svg xmlns="http://www.w3.org/2000/svg" width="209" height="209" viewBox="0 0 209 209">
  <g id="image-onboarding-01" transform="translate(-79 -121)">
    <circle id="Ellipse_6" data-name="Ellipse 6" cx="104.5" cy="104.5" r="104.5" transform="translate(79 121)" fill="#fff"/>
    <g id="Group_1" data-name="Group 1" transform="translate(-1036.906 -329)">
      <path id="Path_39" data-name="Path 39" d="M116.76,233.51v-.045l0-.074c0-.023,0-.046,0-.069l0-.1c0-.058-.011-.126-.018-.191,0-.012,0-.025,0-.037s0-.026,0-.038l0-.016c0-.006,0-.013,0-.018l0-.026a3.992,3.992,0,0,0-.106-.527c-.01-.036-.023-.081-.037-.129l-.021-.069-.014-.044h0l-.005-.016-.021-.059,0-.013q-.027-.078-.061-.163c-.018-.044-.036-.087-.055-.13-.027-.061-.053-.12-.078-.172l-.01-.021-.015-.029c-.015-.03-.029-.06-.044-.089-.059-.113-.109-.2-.146-.258l-.01-.015c-.015-.025-.031-.048-.047-.072l-.05-.075-.057-.088-.025-.033c-.045-.064-.09-.127-.132-.179-.061-.076-.134-.163-.208-.248l-.016-.019-.012-.012c-.079-.089-.161-.176-.236-.245s-.132-.121-.2-.186l-.046-.042-.086-.074-.012-.01c-.071-.061-.143-.119-.208-.168l-.035-.025c-.077-.058-.155-.113-.237-.169l-.083-.059.026.017-.03-.02-.008-.006-.013-.008-.089-.058c-.085-.054-.2-.121-.288-.175.109.067.245.149.361.223l-.363-.224h0l-.006,0,0,0,0,0,0,0-.036-.018.012.008a.29.29,0,0,0-.039-.017h-.009l-.006,0h-.01l-.01,0h-.007l-.014,0-.013,0h-.031l-.016,0h-.017l-.03.007h-.007l-.03.009-.019.006,0,0a.477.477,0,0,0-.063.028q.135.079.263.16a5.886,5.886,0,0,1,.519.372c.063.05.125.1.183.153a4.253,4.253,0,0,1,.632.688,3.416,3.416,0,0,1,.578,1.742,3.066,3.066,0,0,1-1,2.075l-.021.02c-.035.034-.072.067-.108.1a6.647,6.647,0,0,1-.844.634c-.056.035-.111.069-.169.1L48.062,273.393c-.138.08-.284.153-.43.226a10.132,10.132,0,0,1-1.49.574,12.134,12.134,0,0,1-3.937.434,13.084,13.084,0,0,1-3.846-.868,7.713,7.713,0,0,1-.732-.366l-34.5-19.916c-2.068-1.193-2.664-2.918-1.786-4.415.014-.022.027-.045.042-.067l.042-.064a4.682,4.682,0,0,1,1.015-1.064,6.259,6.259,0,0,1,.653-.436l-.014-.006h0l-.018-.008h0l-.018-.007h0l-.018-.006h0l-.018-.005h0l-.008,0-.009,0H3l-.009,0-.005,0H2.976l-.012,0H2.95l-.007,0h-.1l-.005,0h-.03l-.007,0h0a.31.31,0,0,0-.055.025c-.05.03-.1.063-.159.1l-.148.093-.092.06-.017.011c-.08.053-.157.1-.223.155s-.119.092-.183.144l-.161.126-.313.283a4.8,4.8,0,0,0-.414.453l0,0,0,0a4.233,4.233,0,0,0-.277.377c-.033.051-.079.125-.13.212l-.025.042-.016.029c-.036.064-.075.137-.114.214l-.009.017-.006.013a4.153,4.153,0,0,0-.22.538l-.008.021-.006.019c0,.013-.009.025-.013.038-.011.035-.018.063-.027.093v0c-.012.042-.025.086-.035.123l-.008.026-.007.031c-.035.138-.052.229-.058.268l-.01.066c-.01.063-.02.125-.028.179l-.005.053c-.008.063-.013.117-.017.173l0,.022,0,.063c0,.075-.005.174-.008.249v.32c0,.172.01.328.024.469a.047.047,0,0,0,0,.015,4.359,4.359,0,0,0,.065.436v0c.019.094.039.173.055.231.006.021.014.049.021.076.025.093.054.182.085.271.011.033.023.066.035.1a4.414,4.414,0,0,0,.259.568c.038.071.071.129.1.176s.065.1.1.154.08.12.122.179l.031.043a4.875,4.875,0,0,0,.657.733,5.368,5.368,0,0,0,.442.373c.117.085.257.181.4.274s.278.18.384.246a.373.373,0,0,1-.069-.052.373.373,0,0,0,.069.052l3.45,1.992,3.45,1.992,3.45,1.992,3.45,1.992,3.45,1.992,3.45,1.992,3.45,1.992,3.45,1.992,3.45,1.992,3.45,1.992.125.069.119.065.017.009c.064.034.128.066.191.1l.071.037.077.035q.16.076.315.142l.09.04c.058.024.123.049.19.075q.143.056.279.1l.076.028.044.014c.164.056.316.1.454.144l.034.011.1.029c.161.045.3.079.4.1l.043.011.017,0,.04.009a12.537,12.537,0,0,0,5.168.121c.262-.046.483-.094.644-.133.177-.043.412-.1.585-.155l.018-.006c.162-.049.358-.115.511-.165l.511-.2c.068-.026.144-.06.221-.095s.15-.069.231-.109l.093-.046c.139-.069.319-.172.456-.245l6.565-3.812,6.561-3.813,6.561-3.813,6.561-3.813,6.561-3.813,6.561-3.813,6.561-3.813,6.561-3.813,6.561-3.813,6.561-3.813c.19-.113.349-.215.491-.313l.021-.013.008-.006c.127-.088.238-.173.343-.257l.011-.009c.125-.1.177-.143.276-.237l.027-.024c.073-.067.158-.151.247-.244l.025-.025.021-.023c.07-.076.142-.157.212-.24l.014-.016.008-.011a3.994,3.994,0,0,0,.282-.382c.032-.05.076-.12.127-.205l.038-.061c.02-.035.042-.076.063-.117l0-.006.033-.058-.015.025c.025-.047.05-.1.075-.149l.015-.029.009-.021c.033-.069.064-.144.1-.221l.006-.015.013-.035c.034-.087.066-.177.1-.272l.011-.038.006-.019,0,.013c.021-.07.039-.135.054-.192l0-.014,0-.015c.04-.159.056-.258.06-.282l.018-.119.014-.088c0,.025-.009.052-.013.078l0-.021.015-.1c0-.01,0-.021,0-.031.008-.067.014-.13.019-.2,0-.021,0-.042,0-.061s0-.073,0-.113c0-.023,0-.044,0-.063h0c0-.024,0-.049,0-.073v-.362ZM48.722,275.547h0v0m0-.064h0v0h0v0m0-.09h0M2.464,255.641a1.652,1.652,0,0,0,.06.35,1.652,1.652,0,0,1-.06-.35m34.491,19.746a1.251,1.251,0,0,0,.235.844,1.251,1.251,0,0,1-.235-.844m.252.862a.33.33,0,0,0,.035.026.327.327,0,0,1-.035-.026" transform="translate(1161.906 327.907)" fill="#5f72a1"/>
      <path id="Path_40" data-name="Path 40" d="M116.38,158.628c2.891,1.667,2.9,4.377.033,6.044-21.87,12.711-44.4,25.771-66.272,38.48-2.871,1.669-7.31,1.319-10.2-.35l-34.5-19.917c-2.891-1.668-2.907-4.377-.036-6.044,21.87-12.71,44.166-25.42,66.036-38.129a11.507,11.507,0,0,1,10.438,0l34.5,19.916" transform="translate(1159.396 398.372)" fill="#000d2a"/>
      <path id="Path_41" data-name="Path 41" d="M158.67,170.294l-27.369-15.8a12.978,12.978,0,0,0-11.775,0L69.681,183.46c-3.24,1.883-3.223,4.936.038,6.82l27.369,15.8a12.971,12.971,0,0,0,11.775,0l49.845-28.966c3.24-1.883,3.225-4.937-.038-6.822" transform="translate(1110.22 386.37)" fill="#fff"/>
      <path id="Path_42" data-name="Path 42" d="M99.283,354.049l-7.64-4.411a1.806,1.806,0,0,0-1.639,0,.5.5,0,0,0,.007.948L97.651,355a1.805,1.805,0,0,0,1.636,0,.5.5,0,0,0,0-.948" transform="translate(1093.003 235.482)" fill="#5f72a1"/>
      <path id="Path_43" data-name="Path 43" d="M136.318,291.447a1.146,1.146,0,0,0-.421-.425L97.18,268.8l-2.153,1.251a1.148,1.148,0,0,0,.421.425L134.165,292.7Z" transform="translate(1088.886 297.449)" fill="#c8e3f2"/>
      <path id="Path_44" data-name="Path 44" d="M207.3,250.263a1.146,1.146,0,0,0-.421-.425l-38.718-22.222-2.153,1.251a1.147,1.147,0,0,0,.421.425l38.718,22.223Z" transform="translate(1034.344 329.095)" fill="#c8e3f2"/>
      <path id="Path_45" data-name="Path 45" d="M280.131,208a1.148,1.148,0,0,0-.421-.425l-38.718-22.222-2.153,1.251a1.147,1.147,0,0,0,.421.425l38.717,22.223Z" transform="translate(978.377 361.57)" fill="#c8e3f2"/>
      <path id="Path_46" data-name="Path 46" d="M167.742,247.658l62-35.544-2.32-1.339-62,35.544Z" transform="translate(1034.792 342.036)" fill="#c8e3f2"/>
      <path id="Path_47" data-name="Path 47" d="M347.978,25.6c0-.055,0-.111,0-.167q0-.147.007-.3c0-.057,0-.113,0-.17s0-.135,0-.2c0-.092,0-.184,0-.277,0-.046,0-.092,0-.139,0-.087-.008-.175-.012-.263s-.007-.169-.012-.254c0-.031,0-.063,0-.094-.008-.125-.019-.25-.03-.375-.005-.064-.009-.127-.015-.192,0-.014,0-.027,0-.04q-.029-.3-.067-.608c0-.006,0-.013,0-.019-.005-.042-.012-.083-.018-.124-.021-.156-.042-.311-.067-.468,0-.028-.01-.057-.015-.085-.013-.079-.027-.158-.042-.236-.017-.1-.033-.2-.052-.3-.01-.052-.021-.1-.031-.155-.017-.088-.035-.175-.054-.263-.015-.07-.027-.14-.043-.211s-.037-.156-.054-.233l-.063-.267c-.011-.046-.021-.092-.032-.138-.028-.112-.059-.225-.089-.338-.021-.078-.04-.156-.063-.235-.006-.024-.012-.048-.019-.072q-.085-.308-.181-.619l-.007-.024v0q-.1-.318-.206-.64l-.027-.077c-.024-.071-.05-.143-.075-.215-.039-.113-.077-.225-.118-.339-.021-.059-.045-.118-.066-.177q-.045-.122-.092-.245c-.025-.067-.049-.134-.075-.2-.042-.108-.087-.217-.131-.325-.028-.069-.055-.138-.083-.207-.012-.029-.023-.058-.035-.086q-.129-.311-.267-.625l-.009-.02-.05-.109c-.077-.173-.156-.347-.237-.521l-.1-.2q-.122-.255-.248-.508c-.055-.11-.113-.219-.169-.329s-.106-.208-.16-.311c-.03-.056-.058-.113-.087-.169-.053-.1-.11-.2-.164-.3-.118-.217-.237-.432-.36-.646-.035-.061-.067-.123-.1-.184-.057-.1-.118-.194-.177-.292q-.144-.243-.292-.483c-.1-.16-.2-.323-.306-.484s-.2-.316-.307-.472c-.042-.063-.081-.127-.124-.19s-.1-.135-.144-.2q-.267-.389-.542-.767c-.052-.071-.1-.146-.153-.216-.039-.052-.079-.1-.118-.154-.083-.111-.168-.221-.252-.33s-.146-.2-.222-.29-.128-.158-.192-.237-.144-.179-.217-.267c-.049-.059-.1-.12-.145-.179-.118-.141-.238-.279-.357-.417-.048-.056-.1-.113-.143-.167l-.044-.052q-.277-.315-.559-.619l-.054-.057c-.058-.063-.116-.121-.174-.182-.119-.125-.236-.251-.356-.373-.051-.052-.1-.1-.154-.152-.081-.081-.162-.161-.243-.24s-.142-.142-.213-.211-.174-.161-.26-.242-.165-.155-.248-.231c-.042-.037-.081-.076-.122-.113-.141-.127-.284-.25-.427-.372-.057-.05-.114-.1-.172-.15l-.039-.034q-.315-.266-.633-.517l-.051-.039c-.056-.044-.113-.085-.169-.128-.133-.1-.267-.207-.4-.306-.055-.042-.111-.079-.167-.119l-.225-.16c-.071-.05-.142-.1-.213-.151-.119-.082-.24-.159-.359-.237-.054-.035-.108-.072-.162-.107l-.065-.043q-.287-.183-.575-.352l-.133-.077q-.213-.123-.425-.237c-.059-.032-.118-.061-.177-.092l-.213-.111-.16-.083c-.106-.052-.21-.1-.315-.149l-.173-.081-.061-.029q-.277-.124-.552-.234l-.023-.009-.115-.043c-.139-.054-.278-.108-.417-.157-.034-.012-.068-.021-.1-.033l-.221-.072c-.081-.026-.162-.055-.242-.079-.057-.017-.113-.031-.17-.047l-.247-.068c-.054-.014-.108-.031-.162-.045-.076-.019-.151-.033-.227-.05s-.171-.039-.255-.057l-.11-.024c-.088-.017-.175-.029-.263-.043s-.179-.031-.268-.044L329.27.093c-.083-.011-.167-.016-.25-.026-.108-.012-.216-.025-.322-.033l-.074-.008c-.07,0-.137,0-.206-.007-.129-.006-.258-.012-.385-.013-.031,0-.063,0-.093,0-.136,0-.271,0-.4.012l-.065,0c-.09.005-.181.01-.27.019-.068.006-.135.016-.2.023l-.133.015c-.164.021-.327.047-.488.079l-.026.006c-.06.012-.117.028-.177.042-.123.028-.246.056-.367.09-.07.019-.138.043-.206.064s-.163.048-.243.075c-.022.008-.043.019-.065.026-.13.048-.257.1-.383.155-.062.026-.125.05-.185.079-.185.086-.366.179-.542.281l-5.613,3.261c.176-.1.357-.2.542-.281.06-.029.123-.052.185-.079.126-.055.253-.108.383-.155.1-.037.2-.07.308-.1.069-.021.137-.045.207-.064.121-.034.244-.063.367-.09.059-.013.117-.029.177-.042.169-.034.34-.063.514-.085l.133-.015c.156-.018.313-.033.473-.042l.065,0c.164-.008.331-.01.5-.008.127,0,.256.007.385.013.093,0,.186.007.28.015s.215.021.322.033.218.023.328.039c.089.013.178.029.267.044.124.021.248.042.373.068.085.017.17.037.255.056.129.03.258.061.388.1l.247.068q.205.059.412.125c.074.024.147.047.221.073q.258.089.518.19l.115.043c.211.083.423.175.636.271.058.026.115.054.173.081q.237.11.475.231l.213.111c.2.1.4.213.6.329.258.149.516.308.773.473l.162.107q.287.188.572.389c.075.053.15.106.225.16q.285.206.568.424c.056.043.113.085.169.129q.364.285.723.59c.058.049.114.1.172.15q.276.238.549.486c.083.075.165.153.248.229q.238.223.474.454l.243.24q.257.258.51.526c.058.061.116.12.174.182q.334.357.658.73c.048.055.1.112.143.167q.253.294.5.6l.217.268q.208.26.413.526c.083.11.169.219.252.33s.181.247.271.371q.276.379.542.767c.09.131.18.262.269.394.1.156.206.313.307.471s.207.323.307.486.2.32.292.482.188.317.28.478c.122.213.241.428.359.644.085.155.171.309.253.466.054.1.106.206.159.309.142.278.283.556.417.838.116.243.227.485.333.726.015.035.033.07.048.105q.163.367.311.731c.029.069.055.138.083.206q.107.265.207.528l.091.243q.1.259.184.516c.025.072.051.144.075.216.082.241.16.481.233.719l.007.023c.071.232.137.463.2.692.021.078.04.155.061.233.042.16.083.32.122.479l.063.265q.051.223.1.445.027.132.053.263c.03.153.057.3.083.455.014.078.028.157.04.235.03.186.057.371.082.554.006.042.012.083.017.123q.043.336.074.667c.006.065.01.129.015.193.013.157.025.313.034.468,0,.085.008.169.012.254.006.135.011.269.014.4,0,.093,0,.185,0,.277q0,.188,0,.373,0,.148-.007.3-.006.176-.015.35c-.006.105-.012.211-.019.315-.013.173-.025.345-.043.515-.03.285-.071.564-.115.841-.008.048-.013.1-.021.146q-.074.435-.173.856c-.024.106-.054.208-.081.313-.05.2-.1.392-.158.584l-.036.116c-.083.271-.174.538-.274.8-.121.318-.25.628-.385.935-.04.093-.083.184-.125.275q-.146.322-.3.636c-.052.1-.1.21-.156.313q-.165.324-.338.64c-.043.079-.083.159-.128.237q-.238.429-.485.849l-.095.158q-.208.348-.419.692l-.188.3-.356.569-.289.459-.358.567q-.266.422-.527.845-.587.955-1.184,1.9l-.045.071q-.778,1.227-1.572,2.436l-.41.625q-.786,1.194-1.579,2.38-1.258,1.878-2.537,3.735a1.417,1.417,0,0,1-.3.325,1.045,1.045,0,0,1-.108.073h0l5.614-3.262a1.306,1.306,0,0,0,.409-.4q1.281-1.853,2.537-3.735.792-1.184,1.578-2.378.207-.313.412-.629.79-1.207,1.568-2.429l.04-.063.009-.014q.6-.942,1.184-1.9.26-.423.527-.845l.358-.566q.146-.229.29-.459.179-.283.356-.568l.188-.3q.212-.343.419-.692l.1-.158q.247-.419.485-.849c.043-.078.085-.158.128-.237q.172-.317.338-.64c.053-.1.1-.208.156-.313s.1-.2.149-.3.1-.224.152-.336l.125-.275c.134-.306.264-.616.385-.935l.042-.11c.083-.226.16-.457.233-.69.012-.038.024-.076.036-.115s.025-.077.036-.116c.045-.154.081-.313.121-.468.027-.1.056-.206.081-.311,0-.017.009-.034.013-.05q.087-.379.154-.769c0-.012,0-.025.005-.037.008-.048.014-.1.021-.146.029-.18.058-.359.081-.542q.018-.149.035-.3.019-.183.034-.367c0-.049.006-.1.009-.149q.011-.157.019-.315c0-.061.009-.122.011-.183" transform="translate(917.111 503.997)" fill="#232245"/>
      <path id="Path_48" data-name="Path 48" d="M315.681,15.977c4.37,2.523,8.566,7.333,11.2,12.86a22.359,22.359,0,0,1,2.46,11.868,14.56,14.56,0,0,1-.858,3.655,43.874,43.874,0,0,1-4.148,7.477c-1.551,2.525-3.162,4.978-4.791,7.409q-1.259,1.878-2.537,3.735a.959.959,0,0,1-1.379.357,3.768,3.768,0,0,1-1.372-1.934q-2.54-6.582-4.978-13.172c-1.073-2.9-2.118-5.774-3.106-8.667s-2.155-5.806-3.062-8.708c-1.471-4.7-1.958-9-.577-12.189,2.113-4.889,7.431-5.989,13.145-2.69" transform="translate(930.059 493.174)" fill="#5f72a1"/>
      <path id="Path_49" data-name="Path 49" d="M337.327,47.034c-4.2-2.427-7.624-.479-7.638,4.353a16.724,16.724,0,0,0,7.589,13.144c4.2,2.428,7.624.48,7.638-4.353a16.725,16.725,0,0,0-7.589-13.144" transform="translate(908.567 468.661)" fill="#fff"/>
      <rect id="Rectangle_3" data-name="Rectangle 3" width="116.76" height="101.57" transform="translate(1161.906 504)" fill="none"/>
    </g>
  </g>
</svg>
