<svg xmlns="http://www.w3.org/2000/svg" width="209" height="209" viewBox="0 0 209 209">
  <g id="image-onboarding-02" transform="translate(-79 -121)">
    <circle id="Ellipse_6" data-name="Ellipse 6" cx="104.5" cy="104.5" r="104.5" transform="translate(79 121)" fill="#fff"/>
    <g id="Group_1" data-name="Group 1" transform="translate(125 175)">
      <path id="Path_39" data-name="Path 39" d="M0,233.51v-.045l0-.074c0-.023,0-.046,0-.069l0-.1c0-.058.011-.126.018-.191,0-.012,0-.025,0-.037s0-.026,0-.038l0-.016c0-.006,0-.013,0-.018l0-.026a3.992,3.992,0,0,1,.106-.527c.01-.036.023-.081.037-.129l.021-.069.014-.044h0l.005-.016.021-.059,0-.013q.027-.078.061-.163c.018-.044.036-.087.055-.13.027-.061.053-.12.078-.172l.01-.021.015-.029c.015-.03.029-.06.044-.089.059-.113.109-.2.146-.258l.01-.015c.015-.025.031-.048.047-.072l.05-.075.057-.088.025-.033c.045-.064.09-.127.132-.179.061-.076.134-.163.208-.248l.016-.019.012-.012c.079-.089.161-.176.236-.245s.132-.121.2-.186l.046-.042.086-.074.012-.01c.071-.061.143-.119.208-.168l.035-.025c.077-.058.155-.113.237-.169l.083-.059-.026.017.03-.02.008-.006.013-.008.089-.058c.085-.054.2-.121.288-.175-.109.067-.245.149-.361.223l.363-.224h0l.006,0,0,0,0,0,0,0,.036-.018-.012.008a.29.29,0,0,1,.039-.017h.009l.006,0h.01l.01,0h.007l.014,0,.013,0h.031l.016,0h.017l.03.007h.007l.03.009.019.006,0,0a.477.477,0,0,1,.063.028q-.135.079-.263.16a5.886,5.886,0,0,0-.519.372c-.063.05-.125.1-.183.153a4.253,4.253,0,0,0-.632.688,3.416,3.416,0,0,0-.578,1.742,3.066,3.066,0,0,0,1,2.075l.021.02c.035.034.072.067.108.1a6.647,6.647,0,0,0,.844.634c.056.035.111.069.169.1L68.7,273.393c.138.08.284.153.43.226a10.132,10.132,0,0,0,1.49.574,12.134,12.134,0,0,0,3.937.434,13.084,13.084,0,0,0,3.846-.868,7.714,7.714,0,0,0,.732-.366l34.5-19.916c2.068-1.193,2.664-2.918,1.786-4.415-.014-.022-.027-.045-.042-.067l-.042-.064a4.682,4.682,0,0,0-1.015-1.064,6.259,6.259,0,0,0-.653-.436l.014-.006h0l.018-.008h0l.018-.007h0l.018-.006h0l.018-.005h0l.008,0,.009,0h0l.009,0,.005,0h.006l.012,0h.014l.007,0h.1l.005,0h.03l.007,0h0a.31.31,0,0,1,.055.025c.05.03.1.063.159.1l.148.093.092.06.017.011c.08.053.157.1.223.155s.119.092.183.144l.161.126.313.283a4.8,4.8,0,0,1,.414.453l0,0,0,0a4.234,4.234,0,0,1,.277.377c.033.051.079.125.13.212l.025.042.016.029c.036.064.075.137.114.214l.009.017.006.013a4.153,4.153,0,0,1,.22.538l.008.021.006.019c0,.013.009.025.013.038.011.035.018.063.027.093v0c.012.042.025.086.035.123l.008.026.007.031c.035.138.052.229.058.268l.01.066c.01.063.02.125.028.179l.005.053c.008.063.013.117.017.173l0,.022,0,.063c0,.075,0,.174.007.249v.32c0,.172-.01.328-.024.469a.048.048,0,0,1,0,.015,4.359,4.359,0,0,1-.065.436v0c-.019.094-.039.173-.055.231-.006.021-.014.049-.021.076-.025.093-.054.182-.085.271-.011.033-.023.066-.035.1a4.414,4.414,0,0,1-.259.568c-.038.071-.071.129-.1.176s-.065.1-.1.154-.08.12-.122.179l-.031.043a4.874,4.874,0,0,1-.657.733,5.368,5.368,0,0,1-.442.373c-.117.085-.257.181-.4.274s-.278.18-.384.246a.373.373,0,0,0,.069-.052.373.373,0,0,1-.069.052l-3.45,1.992-3.45,1.992-3.45,1.992-3.45,1.992-3.45,1.992-3.45,1.992-3.45,1.992-3.45,1.992-3.45,1.992-3.45,1.992-.125.069-.119.065-.017.009c-.064.034-.128.066-.191.1l-.071.037-.077.035q-.16.076-.315.142l-.09.04c-.058.024-.123.049-.19.075q-.143.056-.279.1l-.076.028-.044.014c-.164.056-.316.1-.454.144l-.034.011-.1.029c-.161.045-.3.079-.4.1l-.043.011-.017,0-.04.009a12.537,12.537,0,0,1-5.168.121c-.262-.046-.483-.094-.644-.133-.177-.043-.412-.1-.585-.155l-.018-.006c-.162-.049-.358-.115-.511-.165l-.511-.2c-.068-.026-.144-.06-.221-.095s-.15-.069-.231-.109l-.093-.046c-.139-.069-.319-.172-.456-.245L61.8,272.488l-6.561-3.813-6.561-3.813-6.561-3.813-6.561-3.813-6.561-3.813-6.561-3.813L15.87,245.8l-6.561-3.813-6.561-3.813c-.19-.113-.349-.215-.491-.313l-.021-.013-.008-.006c-.127-.088-.238-.173-.343-.257l-.011-.009c-.125-.1-.177-.143-.276-.237l-.027-.024c-.073-.067-.158-.151-.247-.244l-.025-.025-.021-.023c-.07-.076-.142-.157-.212-.24l-.014-.016-.008-.011a3.994,3.994,0,0,1-.282-.382c-.032-.05-.076-.12-.127-.205L.6,236.107c-.02-.035-.042-.076-.063-.117l0-.006L.5,235.926l.015.025c-.025-.047-.05-.1-.075-.149l-.015-.029-.009-.021c-.033-.069-.064-.144-.1-.221l-.006-.015L.3,235.483c-.034-.087-.066-.177-.1-.272l-.011-.038-.006-.019,0,.013c-.021-.07-.039-.135-.054-.192l0-.014,0-.015c-.04-.159-.056-.258-.06-.282l-.018-.119-.014-.088c0,.025.009.052.013.078l0-.021-.015-.1c0-.01,0-.021,0-.031-.008-.067-.014-.13-.019-.2,0-.021,0-.042,0-.061s0-.073,0-.113c0-.023,0-.044,0-.063H0c0-.024,0-.049,0-.073v-.362Zm68.038,42.037h0v0m0-.064h0v0h0v0m0-.09h0M114.3,255.641a1.651,1.651,0,0,1-.06.35,1.651,1.651,0,0,0,.06-.35M79.806,275.388a1.251,1.251,0,0,1-.235.844,1.251,1.251,0,0,0,.235-.844m-.252.862a.331.331,0,0,1-.035.026.327.327,0,0,0,.035-.026" transform="translate(0 -176.093)" fill="#5f72a1"/>
      <path id="Path_40" data-name="Path 40" d="M5.443,158.628c-2.891,1.667-2.9,4.377-.033,6.044,21.87,12.711,44.4,25.771,66.272,38.48,2.871,1.669,7.31,1.319,10.2-.35l34.5-19.917c2.891-1.668,2.907-4.377.036-6.044-21.87-12.71-44.166-25.42-66.036-38.129a11.507,11.507,0,0,0-10.438,0l-34.5,19.916" transform="translate(-2.553 -105.628)" fill="#000d2a"/>
      <path id="Path_41" data-name="Path 41" d="M69.72,170.294l27.369-15.8a12.978,12.978,0,0,1,11.775,0l49.845,28.968c3.24,1.883,3.223,4.936-.038,6.82l-27.369,15.8a12.971,12.971,0,0,1-11.775,0L69.682,177.115c-3.24-1.883-3.225-4.937.038-6.822" transform="translate(-59.944 -117.63)" fill="#fff"/>
      <path id="Path_42" data-name="Path 42" d="M90.009,354.049l7.64-4.411a1.806,1.806,0,0,1,1.639,0,.5.5,0,0,1-.007.948L91.641,355a1.805,1.805,0,0,1-1.636,0,.5.5,0,0,1,0-.948" transform="translate(-3.628 -268.518)" fill="#5f72a1"/>
      <path id="Path_49" data-name="Path 49" d="M337.278,47.034c4.2-2.427,7.624-.479,7.638,4.353a16.724,16.724,0,0,1-7.589,13.144c-4.2,2.428-7.624.48-7.638-4.353a16.725,16.725,0,0,1,7.589-13.144" transform="translate(-304.504 -35.339)" fill="#fff"/>
      <rect id="Rectangle_3" data-name="Rectangle 3" width="116.76" height="101.57" transform="translate(0.001)" fill="none"/>
      <path id="Path_43" data-name="Path 43" d="M95.027,291.447a1.146,1.146,0,0,1,.421-.425L134.165,268.8l2.153,1.251a1.148,1.148,0,0,1-.421.425L97.181,292.7Z" transform="translate(-41.564 -206.551)" fill="#c8e3f2"/>
      <path id="Path_44" data-name="Path 44" d="M166.006,250.263a1.146,1.146,0,0,1,.421-.425l38.718-22.222,2.153,1.251a1.147,1.147,0,0,1-.421.425l-38.718,22.223Z" transform="translate(-128.98 -174.905)" fill="#c8e3f2"/>
      <path id="Path_45" data-name="Path 45" d="M238.84,208a1.148,1.148,0,0,1,.421-.425l38.718-22.222,2.153,1.251a1.147,1.147,0,0,1-.421.425l-38.717,22.223Z" transform="translate(-218.681 -142.43)" fill="#c8e3f2"/>
      <path id="Path_46" data-name="Path 46" d="M227.425,247.658l-62-35.544,2.32-1.339,62,35.544Z" transform="translate(-137.292 -169.964)" fill="#c8e3f2"/>
    </g>
    <g id="Group_2" data-name="Group 2" transform="translate(170.347 172.596)">
      <path id="Icon_awesome-comment-alt" data-name="Icon awesome-comment-alt" d="M52.85.108,9.458.67a8.3,8.3,0,0,0-3.121.723A11.189,11.189,0,0,0,3.288,3.361,10.365,10.365,0,0,0,.96,6.391,8.979,8.979,0,0,0,0,10.3L3.3,45.052a7.911,7.911,0,0,0,.556,2.927,7.657,7.657,0,0,0,1.518,2.4,7.183,7.183,0,0,0,2.253,1.631,6.756,6.756,0,0,0,2.763.615l10.714.089L17.336,62.6a1.47,1.47,0,0,0,.209.766,1.414,1.414,0,0,0,.527.507,1.306,1.306,0,0,0,.693.164,1.261,1.261,0,0,0,.707-.264L37.355,52.851l16.464.137a7.056,7.056,0,0,0,2.868-.58,7.327,7.327,0,0,0,2.349-1.63,7.665,7.665,0,0,0,1.588-2.434,7.882,7.882,0,0,0,.583-2.989V7.694a6.544,6.544,0,0,0-.735-2.984,8.115,8.115,0,0,0-1.922-2.422A9.156,9.156,0,0,0,55.868.673,8.116,8.116,0,0,0,52.85.108Z" transform="translate(0.414)" fill="#232245"/>
      <path id="Icon_awesome-comment-alt-2" data-name="Icon awesome-comment-alt" d="M50.361.086,7.069.594a6.741,6.741,0,0,0-2.754.624A7.2,7.2,0,0,0,2.068,2.855a7.682,7.682,0,0,0-1.513,2.4A7.925,7.925,0,0,0,0,8.181V41.949a7.91,7.91,0,0,0,.555,2.922,7.647,7.647,0,0,0,1.513,2.4A7.162,7.162,0,0,0,4.315,48.9a6.726,6.726,0,0,0,2.754.614L17.75,49.6v9.921a1.47,1.47,0,0,0,.209.766,1.414,1.414,0,0,0,.527.507,1.306,1.306,0,0,0,.693.164,1.261,1.261,0,0,0,.707-.264L33.947,49.735l16.413.137a7.025,7.025,0,0,0,2.859-.58,7.3,7.3,0,0,0,2.342-1.627,7.655,7.655,0,0,0,1.583-2.43,7.881,7.881,0,0,0,.581-2.984V7.682A7.866,7.866,0,0,0,57.145,4.7a7.619,7.619,0,0,0-1.583-2.424A7.269,7.269,0,0,0,53.22.656,7.011,7.011,0,0,0,50.361.086Z" transform="translate(0 3.084)" fill="#5f72a1"/>
      <path id="Rectangle_10" data-name="Rectangle 10" d="M2.337.264,38.416.017a2.3,2.3,0,0,1,.938.191,2.39,2.39,0,0,1,.766.534,2.509,2.509,0,0,1,.517.8,2.629,2.629,0,0,1,0,1.961,2.549,2.549,0,0,1-.517.8,2.429,2.429,0,0,1-.766.543,2.321,2.321,0,0,1-.938.2L2.337,5.223a2.211,2.211,0,0,1-.91-.19,2.322,2.322,0,0,1-.743-.527,2.478,2.478,0,0,1-.5-.785,2.626,2.626,0,0,1,0-1.929A2.517,2.517,0,0,1,.684,1,2.36,2.36,0,0,1,1.427.465,2.226,2.226,0,0,1,2.337.264Z" transform="translate(8.023 15.278)" fill="#fff"/>
      <path id="Rectangle_11" data-name="Rectangle 11" d="M2.337.057,20.244.007A2.262,2.262,0,0,1,21.168.2a2.368,2.368,0,0,1,.755.534,2.507,2.507,0,0,1,.509.793,2.627,2.627,0,0,1,0,1.946,2.519,2.519,0,0,1-.509.8,2.38,2.38,0,0,1-.755.536,2.267,2.267,0,0,1-.924.2L2.337,5.016a2.216,2.216,0,0,1-.91-.194,2.335,2.335,0,0,1-.743-.53,2.491,2.491,0,0,1-.5-.787,2.626,2.626,0,0,1,0-1.929,2.5,2.5,0,0,1,.5-.789A2.347,2.347,0,0,1,1.427.254,2.221,2.221,0,0,1,2.337.057Z" transform="translate(8.023 25.403)" fill="#fff"/>
      <path id="Rectangle_12" data-name="Rectangle 12" d="M2.337,0,28.818.036a2.29,2.29,0,0,1,.931.2,2.4,2.4,0,0,1,.761.539,2.528,2.528,0,0,1,.513.8,2.628,2.628,0,0,1,0,1.953,2.513,2.513,0,0,1-.513.8,2.383,2.383,0,0,1-.761.535,2.284,2.284,0,0,1-.931.194L2.337,4.962a2.221,2.221,0,0,1-.91-.2,2.348,2.348,0,0,1-.743-.533,2.5,2.5,0,0,1-.5-.789,2.626,2.626,0,0,1,0-1.929,2.489,2.489,0,0,1,.5-.787A2.333,2.333,0,0,1,1.427.2,2.215,2.215,0,0,1,2.337,0Z" transform="translate(8.023 35.376)" fill="#fff"/>
    </g>
  </g>
</svg>
