<svg xmlns="http://www.w3.org/2000/svg" width="209" height="209" viewBox="0 0 209 209">
  <g id="image-onboarding-03" transform="translate(-79 -121)">
    <circle id="Ellipse_6" data-name="Ellipse 6" cx="104.5" cy="104.5" r="104.5" transform="translate(79 121)" fill="#fff"/>
    <g id="Group_6" data-name="Group 6">
      <g id="world-svgrepo-com" transform="translate(126 167.983)">
        <path id="Path_29" data-name="Path 29" d="M57.546,0A57.546,57.546,0,1,1,0,57.546,57.546,57.546,0,0,1,57.546,0Z" transform="translate(0 0.017)" fill="#95a9dc"/>
        <path id="Path_22" data-name="Path 22" d="M79.91,118.728a57.567,57.567,0,0,1-51.9-82.423,57.549,57.549,0,1,0,81.442,74.265A57.269,57.269,0,0,1,79.91,118.728Z" transform="translate(0 -28.13)" fill="#768cc5"/>
        <g id="Group_3" data-name="Group 3" transform="translate(0.783 6.297)">
          <path id="Path_23" data-name="Path 23" d="M326.449,63.1l2.343,3.549a.959.959,0,0,1-.552,1.455l-1.622.435a.959.959,0,0,1-1.175-.678l-1.044-3.9a.959.959,0,0,1,.678-1.175l.323-.086A.96.96,0,0,1,326.449,63.1Z" transform="translate(-252.23 -54.861)" fill="#b4ff87"/>
          <path id="Path_24" data-name="Path 24" d="M313.836,85.3l.017.064a.959.959,0,0,1-.678,1.175l-.064.017a.959.959,0,0,1-1.175-.678l-.017-.064a.959.959,0,0,1,.678-1.175l.064-.017A.959.959,0,0,1,313.836,85.3Z" transform="translate(-242.556 -71.86)" fill="#b4ff87"/>
          <path id="Path_25" data-name="Path 25" d="M324.974,29.281l-.107,1.777a1.4,1.4,0,0,1-.47.966l-1.835,1.627a1.4,1.4,0,0,0-.119,1.981l1.167,1.316a.919.919,0,0,0,1.484-.15l.064-.111a1.4,1.4,0,0,1,1.917-.514h0a1.4,1.4,0,0,0,1.917-.514l.7-1.215.223-1.087,1.135,1.279a1.4,1.4,0,0,1-.277,2.1l-3.7,2.441a1.4,1.4,0,0,1-.41.184l-3.052.818a1.4,1.4,0,0,0-.852.654l-1.113,1.927-.671.18a1.29,1.29,0,0,0-.912,1.579l.33,1.232a1.4,1.4,0,0,1-.992,1.718l-3.04.814a1.4,1.4,0,0,0-.992,1.718l.814,3.04a1.4,1.4,0,0,0,1.718.992l5.335-1.429a1.4,1.4,0,0,0,1.037-1.271l.315-5.254,1.917-.514,5.239,1.772a.869.869,0,0,0,1.118-1.048h0a.869.869,0,0,0-.4-.528l-2.119-1.223,1.917-.514,3.5.716a1.4,1.4,0,0,1,1.074,1.012l.542,2.021a1.008,1.008,0,0,0,1.235.713l.34-.091a1.008,1.008,0,0,0,.727-.772l.2-.987a1.4,1.4,0,0,1,2.424-.649l1.082,1.22L345.3,46.7l2.049,3.1a1.4,1.4,0,0,1-1.147,2.176l-5.452.092a1.387,1.387,0,0,0-.34.048l-2.864.767a.831.831,0,0,0-.588,1.018h0a.831.831,0,0,1-.852,1.045L332,54.7a1.4,1.4,0,0,1-1.271-1.037l-.4-1.5a1.4,1.4,0,0,0-1.718-.992l-2.258.6a1.406,1.406,0,0,0-.41.184l-4.857,3.207a1.394,1.394,0,0,1-.41.184l-2.776.744a1.4,1.4,0,0,0-1.012,1.074l-.638,3.116a2.4,2.4,0,0,1-.273.718l-2.115,3.663a2.4,2.4,0,0,0-.239,1.819l1.54,5.748a2.4,2.4,0,0,0,1.117,1.456l5.571,3.216a2.4,2.4,0,0,0,1.819.239l11.1-2.975a1.4,1.4,0,0,1,1.718.992l1.605,5.992a1.4,1.4,0,0,0,.305.568l2.5,2.824a1.406,1.406,0,0,1,.306.568l.9,3.347a1.4,1.4,0,0,0,.129.318l7.326,13.2a1.4,1.4,0,0,0,1.59.674l1.581-.424a1.426,1.426,0,0,0,.948-.823,57.5,57.5,0,0,0-26.659-73.292A1.411,1.411,0,0,0,324.974,29.281Z" transform="translate(-243.841 -27.951)" fill="#abeb84"/>
          <path id="Path_26" data-name="Path 26" d="M60.11,112.648l-1.882-2.85a1.985,1.985,0,0,0-2.169-.823l-1.658.444a1.984,1.984,0,0,1-1.506-.2l-3.437-1.984a1.985,1.985,0,0,0-1.506-.2l-2.246.6a1.984,1.984,0,0,1-1.506-.2l-.48-.277a1.985,1.985,0,0,0-2.309.234l-1.9,1.684a1.985,1.985,0,0,1-.8.432l-2,.536a1.984,1.984,0,0,1-2.169-.823l-2.069-3.134a1.985,1.985,0,0,0-1.689-.891l-4.276.072a1.984,1.984,0,0,1-1.913-2.62l1.05-3.1a1.984,1.984,0,0,1,1.366-1.281l3.54-.948a1.984,1.984,0,0,1,2,.6l1.627,1.835a1.226,1.226,0,0,0,1.235.371h0a1.226,1.226,0,0,0,.867-1.5l-.99-3.7a1.985,1.985,0,0,1,.268-1.618L46.377,77.153a1.986,1.986,0,0,1,1.135-.813L51.8,75.192a1.984,1.984,0,0,0,1.142-3.01l-1.488-2.253a1.984,1.984,0,0,0-1.258-.851L43.93,67.8A1.984,1.984,0,0,0,41.691,69l-2.38,5.929a1.984,1.984,0,0,1-2.477,1.14l-2.342-.792a1.984,1.984,0,0,1-.925-3.1L37.553,67.1A1.983,1.983,0,0,1,38.6,66.4l6.07-1.626a.992.992,0,0,1,1.215.7h0a.992.992,0,0,0,1.215.7l2.875-.77a1.985,1.985,0,0,0,1.4-2.43l-.514-1.917a1.985,1.985,0,0,0-2.43-1.4l-11.1,2.973a7.937,7.937,0,0,0-3.908,2.427l-2.545,2.9a.48.48,0,0,1-.823-.192l-.282-1.051a1.985,1.985,0,0,0-2.43-1.4l-3.039.814a1.986,1.986,0,0,0-1.2.924l-1.582,2.74a1.984,1.984,0,0,1-2.354.888l-3.423-1.158a2.018,2.018,0,0,0-2.287.749A57.713,57.713,0,0,0,3.484,94.3l.765-.205,6.388,10.654a2.683,2.683,0,0,0,3,1.212h0a3.633,3.633,0,0,1,3.339.78l3.3,2.9a1.985,1.985,0,0,0,1.438.49l8.308-.536a1.984,1.984,0,0,1,1.612.664l1.486,1.676a1.984,1.984,0,0,0,2,.6l2.649-.71a1.984,1.984,0,0,1,2.43,1.4l.3,1.123a1.984,1.984,0,0,1-.2,1.506l-.758,1.313a1.984,1.984,0,0,0-.262.873l-.265,4.415a1.984,1.984,0,0,0,1.185,1.936l9.5,4.161a1.983,1.983,0,0,1,1.12,1.3l4.254,15.877a1.98,1.98,0,0,0,.432.8l7.707,8.691a1.984,1.984,0,0,0,2,.6l.386-.1a1.984,1.984,0,0,0,1.293-2.739l-3.605-7.925a1.984,1.984,0,0,1,.088-1.814l4.691-8.125a1.985,1.985,0,0,0,.2-1.506l-.814-3.04a1.984,1.984,0,0,1,1.4-2.43l2.452-.657a1.984,1.984,0,0,0,1.467-1.8l.576-9.587a1.985,1.985,0,0,0-1.345-2l-4.773-1.615a1.986,1.986,0,0,0-1.15-.037l-3.788,1.015A1.983,1.983,0,0,1,60.11,112.648Z" transform="translate(-3.484 -52.479)" fill="#abeb84"/>
        </g>
        <g id="Group_4" data-name="Group 4" transform="translate(0.797 19.327)">
          <path id="Path_27" data-name="Path 27" d="M21.754,130.533,30.062,130a1.985,1.985,0,0,1,1.613.664l1.486,1.676a1.984,1.984,0,0,0,2,.6l.293-.079a57.139,57.139,0,0,1-4.326-7.22,1.928,1.928,0,0,0-.3-.033l-4.276.072a1.984,1.984,0,0,1-1.913-2.62l1.05-3.1a1.984,1.984,0,0,1,1.366-1.281l1.037-.278c-.426-1.245-.828-2.5-1.173-3.794a57.2,57.2,0,0,1-.27-28.688l-2.293.614a1.985,1.985,0,0,0-1.2.924l-1.582,2.74a1.984,1.984,0,0,1-2.354.888L15.8,89.92a2.011,2.011,0,0,0-2.245.707q-1.1,1.533-2.092,3.135c-.235.379-.456.766-.683,1.15q-.7,1.19-1.349,2.413c-.229.433-.46.865-.678,1.3-.541,1.091-1.055,2.2-1.526,3.321-.17.406-.32.822-.481,1.232-.341.868-.665,1.743-.964,2.628-.182.54-.354,1.084-.521,1.631-.239.783-.455,1.574-.661,2.368-.135.523-.283,1.042-.4,1.569-.251,1.1-.459,2.207-.645,3.321l.751-.2,6.388,10.654a2.683,2.683,0,0,0,3,1.212,3.634,3.634,0,0,1,3.339.78l3.3,2.9A1.975,1.975,0,0,0,21.754,130.533Z" transform="translate(-3.547 -85.912)" fill="#8be46e"/>
          <path id="Path_28" data-name="Path 28" d="M190.533,334.849c.018-.032.018-.07.035-.1a57.782,57.782,0,0,1-28.657-17.508,1.96,1.96,0,0,0-.159.53l-.265,4.415a1.984,1.984,0,0,0,1.185,1.936l9.5,4.161a1.983,1.983,0,0,1,1.12,1.3l4.254,15.877a1.98,1.98,0,0,0,.432.8l7.707,8.691a1.984,1.984,0,0,0,2,.6l.386-.1a1.984,1.984,0,0,0,1.293-2.738l-3.605-7.925a1.985,1.985,0,0,1,.088-1.814Z" transform="translate(-125.979 -265.234)" fill="#8be46e"/>
        </g>
      </g>
      <path id="Path_30" data-name="Path 30" d="M24.288,0A24.288,24.288,0,1,1,0,24.288,24.288,24.288,0,0,1,24.288,0Z" transform="translate(160 201.712)" fill="#232245"/>
      <path id="Icon_awesome-accessible-icon" data-name="Icon awesome-accessible-icon" d="M20.136,11.8l-.6,7.257a1.4,1.4,0,0,1-2.8-.226l.461-5.651-1.9.106a7.18,7.18,0,0,1-1.222,8.073l-1.813-1.813a4.611,4.611,0,0,0-6.514-6.514L3.948,11.219A7.156,7.156,0,0,1,7.7,9.365l3.474-3.953L9.212,4.267,6.831,6.389A1.4,1.4,0,0,1,4.963,4.295L8.1,1.495a1.4,1.4,0,0,1,1.638-.166s6.426,3.732,6.435,3.741A1.645,1.645,0,0,1,16.454,7.5L13.76,10.564l4.895-.272A1.4,1.4,0,0,1,20.136,11.8ZM17.142,4.7a2.348,2.348,0,1,0-2.348-2.348A2.349,2.349,0,0,0,17.142,4.7ZM8.866,21.059a4.617,4.617,0,0,1-3.815-7.2L3.219,12.027a7.1,7.1,0,0,0-1.532,4.415,7.183,7.183,0,0,0,11.6,5.651l-1.831-1.831A4.581,4.581,0,0,1,8.866,21.059Z" transform="translate(172.636 213.736)" fill="#fff"/>
      <g id="Group_5" data-name="Group 5" transform="translate(1.477 0.013)">
        <path id="Icon_awesome-check-circle" data-name="Icon awesome-check-circle" d="M18.459,9.511A8.948,8.948,0,1,1,9.511.563,8.948,8.948,0,0,1,18.459,9.511Z" transform="translate(191.67 198.107)" fill="#65d422"/>
        <path id="Icon_awesome-check-circle-2" data-name="Icon awesome-check-circle" d="M18.459,9.511A8.948,8.948,0,1,1,9.511.563,8.948,8.948,0,0,1,18.459,9.511ZM8.476,14.249,15.114,7.61a.577.577,0,0,0,0-.816L14.3,5.977a.577.577,0,0,0-.816,0L8.067,11.391,5.54,8.863a.577.577,0,0,0-.816,0l-.816.816a.577.577,0,0,0,0,.816l3.752,3.752A.577.577,0,0,0,8.476,14.249Z" transform="translate(191.67 198.107)" fill="#fff"/>
      </g>
      <path id="Icon_ionic-ios-pin" data-name="Icon ionic-ios-pin" d="M11.14,3.375A3.156,3.156,0,0,0,7.875,6.407c0,2.358,3.265,6.4,3.265,6.4s3.265-4.043,3.265-6.4A3.156,3.156,0,0,0,11.14,3.375Zm0,4.329A1.063,1.063,0,1,1,12.2,6.64,1.063,1.063,0,0,1,11.14,7.7Z" transform="translate(132.05 210.361)" fill="#c73737"/>
      <path id="Icon_ionic-ios-pin-2" data-name="Icon ionic-ios-pin" d="M11.14,3.375A3.156,3.156,0,0,0,7.875,6.407c0,2.358,3.265,6.4,3.265,6.4s3.265-4.043,3.265-6.4A3.156,3.156,0,0,0,11.14,3.375Zm0,4.329A1.063,1.063,0,1,1,12.2,6.64,1.063,1.063,0,0,1,11.14,7.7Z" transform="translate(125.05 196.645)" fill="#c73737"/>
      <path id="Icon_ionic-ios-pin-3" data-name="Icon ionic-ios-pin" d="M11.14,3.375A3.156,3.156,0,0,0,7.875,6.407c0,2.358,3.265,6.4,3.265,6.4s3.265-4.043,3.265-6.4A3.156,3.156,0,0,0,11.14,3.375Zm0,4.329A1.063,1.063,0,1,1,12.2,6.64,1.063,1.063,0,0,1,11.14,7.7Z" transform="translate(137.05 185.875)" fill="#c73737"/>
      <path id="Icon_ionic-ios-pin-4" data-name="Icon ionic-ios-pin" d="M11.14,3.375A3.156,3.156,0,0,0,7.875,6.407c0,2.358,3.265,6.4,3.265,6.4s3.265-4.043,3.265-6.4A3.156,3.156,0,0,0,11.14,3.375Zm0,4.329A1.063,1.063,0,1,1,12.2,6.64,1.063,1.063,0,0,1,11.14,7.7Z" transform="translate(146.05 196.307)" fill="#c73737"/>
      <path id="Icon_ionic-ios-pin-5" data-name="Icon ionic-ios-pin" d="M11.14,3.375A3.156,3.156,0,0,0,7.875,6.407c0,2.358,3.265,6.4,3.265,6.4s3.265-4.043,3.265-6.4A3.156,3.156,0,0,0,11.14,3.375Zm0,4.329A1.063,1.063,0,1,1,12.2,6.64,1.063,1.063,0,0,1,11.14,7.7Z" transform="translate(171.05 252.307)" fill="#c73737"/>
      <path id="Icon_ionic-ios-pin-6" data-name="Icon ionic-ios-pin" d="M11.14,3.375A3.156,3.156,0,0,0,7.875,6.407c0,2.358,3.265,6.4,3.265,6.4s3.265-4.043,3.265-6.4A3.156,3.156,0,0,0,11.14,3.375Zm0,4.329A1.063,1.063,0,1,1,12.2,6.64,1.063,1.063,0,0,1,11.14,7.7Z" transform="translate(221.05 220.307)" fill="#c73737"/>
      <path id="Icon_ionic-ios-pin-7" data-name="Icon ionic-ios-pin" d="M11.14,3.375A3.156,3.156,0,0,0,7.875,6.407c0,2.358,3.265,6.4,3.265,6.4s3.265-4.043,3.265-6.4A3.156,3.156,0,0,0,11.14,3.375Zm0,4.329A1.063,1.063,0,1,1,12.2,6.64,1.063,1.063,0,0,1,11.14,7.7Z" transform="translate(206.05 203.771)" fill="#c73737"/>
      <path id="Icon_ionic-ios-pin-8" data-name="Icon ionic-ios-pin" d="M11.14,3.375A3.156,3.156,0,0,0,7.875,6.407c0,2.358,3.265,6.4,3.265,6.4s3.265-4.043,3.265-6.4A3.156,3.156,0,0,0,11.14,3.375Zm0,4.329A1.063,1.063,0,1,1,12.2,6.64,1.063,1.063,0,0,1,11.14,7.7Z" transform="translate(221.05 199.055)" fill="#c73737"/>
      <path id="Icon_ionic-ios-pin-9" data-name="Icon ionic-ios-pin" d="M11.14,3.375A3.156,3.156,0,0,0,7.875,6.407c0,2.358,3.265,6.4,3.265,6.4s3.265-4.043,3.265-6.4A3.156,3.156,0,0,0,11.14,3.375Zm0,4.329A1.063,1.063,0,1,1,12.2,6.64,1.063,1.063,0,0,1,11.14,7.7Z" transform="translate(192.05 182.055)" fill="#c73737"/>
      <path id="Icon_ionic-ios-pin-10" data-name="Icon ionic-ios-pin" d="M11.14,3.375A3.156,3.156,0,0,0,7.875,6.407c0,2.358,3.265,6.4,3.265,6.4s3.265-4.043,3.265-6.4A3.156,3.156,0,0,0,11.14,3.375Zm0,4.329A1.063,1.063,0,1,1,12.2,6.64,1.063,1.063,0,0,1,11.14,7.7Z" transform="translate(203.05 175.055)" fill="#c73737"/>
    </g>
  </g>
</svg>
