<svg xmlns="http://www.w3.org/2000/svg" width="18.453" height="23.619" viewBox="0 0 18.453 23.619">
  <path id="Icon_awesome-accessible-icon" data-name="Icon awesome-accessible-icon" d="M20.136,11.8l-.6,7.257a1.4,1.4,0,0,1-2.8-.226l.461-5.651-1.9.106a7.18,7.18,0,0,1-1.222,8.073l-1.813-1.813a4.611,4.611,0,0,0-6.514-6.514L3.948,11.219A7.156,7.156,0,0,1,7.7,9.365l3.474-3.953L9.212,4.267,6.831,6.389A1.4,1.4,0,0,1,4.963,4.295L8.1,1.495a1.4,1.4,0,0,1,1.638-.166s6.426,3.732,6.435,3.741A1.645,1.645,0,0,1,16.454,7.5L13.76,10.564l4.895-.272A1.4,1.4,0,0,1,20.136,11.8ZM17.142,4.7a2.348,2.348,0,1,0-2.348-2.348A2.349,2.349,0,0,0,17.142,4.7ZM8.866,21.059a4.617,4.617,0,0,1-3.815-7.2L3.219,12.027a7.1,7.1,0,0,0-1.532,4.415,7.183,7.183,0,0,0,11.6,5.651l-1.831-1.831A4.581,4.581,0,0,1,8.866,21.059Z" transform="translate(-1.688)" fill="#fff"/>
</svg>
