<svg xmlns="http://www.w3.org/2000/svg" width="17.242" height="15.087" viewBox="0 0 17.242 15.087">
  <path id="Icon_awesome-eraser" data-name="Icon awesome-eraser" d="M16.768,10.4a1.616,1.616,0,0,0,0-2.286L11.38,2.723a1.616,1.616,0,0,0-2.286,0L.473,11.344a1.616,1.616,0,0,0,0,2.286l3.233,3.233a1.617,1.617,0,0,0,1.143.473H16.838a.4.4,0,0,0,.4-.4V15.586a.4.4,0,0,0-.4-.4H11.985L16.768,10.4ZM6.577,8.289,11.2,12.915,8.937,15.181H5.072L2.378,12.487l4.2-4.2Z" transform="translate(0 -2.25)" fill="#232245"/>
</svg>
