<svg xmlns="http://www.w3.org/2000/svg" width="15.75" height="15.75" viewBox="0 0 15.75 15.75">
  <path id="Icon_awesome-facebook-square" data-name="Icon awesome-facebook-square" d="M14.063,2.25H1.688A1.688,1.688,0,0,0,0,3.938V16.313A1.688,1.688,0,0,0,1.688,18H6.513V12.645H4.3v-2.52H6.513V8.2A3.076,3.076,0,0,1,9.806,4.812a13.418,13.418,0,0,1,1.952.17V7.127h-1.1A1.26,1.26,0,0,0,9.237,8.488v1.637h2.418l-.387,2.52H9.237V18h4.825a1.688,1.688,0,0,0,1.687-1.687V3.938A1.688,1.688,0,0,0,14.062,2.25Z" transform="translate(0 -2.25)" fill="#fff"/>
</svg>
