<svg xmlns="http://www.w3.org/2000/svg" width="24.636" height="24" viewBox="0 0 24.636 24">
  <path id="intellectual-disability" d="M23.154,14.048a4.162,4.162,0,0,0-3.627-4.959A4.158,4.158,0,0,0,12.318,8.3a4.158,4.158,0,0,0-7.209.792,4.163,4.163,0,0,0-3.627,4.959,4.157,4.157,0,0,0-.469,5.9,5.177,5.177,0,0,0,4.173,8.241,4.155,4.155,0,0,0,7.133.626,4.155,4.155,0,0,0,7.133-.626,5.178,5.178,0,0,0,4.173-8.241,4.157,4.157,0,0,0-.469-5.9ZM8.839,28.979A2.607,2.607,0,0,1,6.83,24.718a.777.777,0,1,0-1.2-.989,4.161,4.161,0,0,0-.946,2.862,3.616,3.616,0,0,1,0-7.19,4.154,4.154,0,0,0,.2,1.5.777.777,0,1,0,1.476-.483A2.607,2.607,0,0,1,8.03,17.138a.777.777,0,1,0-.483-1.476,4.215,4.215,0,0,0-.515.208,2.031,2.031,0,0,1,.594-2.3.777.777,0,0,0-.991-1.2,3.58,3.58,0,0,0-.874,4.445,5.655,5.655,0,0,0-.689,1.008,5.141,5.141,0,0,0-3.05,1,2.6,2.6,0,0,1,.664-3.831.777.777,0,0,0,.32-.92A2.6,2.6,0,0,1,5.571,10.6a.777.777,0,0,0,.751-.578,2.6,2.6,0,0,1,5.121.669V26.375A2.607,2.607,0,0,1,8.839,28.979ZM22.417,18.824a5.134,5.134,0,0,0-3.065-1,4.118,4.118,0,0,0-.674-1.009,3.58,3.58,0,0,0-.874-4.445.777.777,0,1,0-.991,1.2,2.031,2.031,0,0,1,.594,2.3,4.218,4.218,0,0,0-.515-.208.777.777,0,1,0-.483,1.476,2.607,2.607,0,0,1,1.666,3.284.777.777,0,1,0,1.476.483,4.154,4.154,0,0,0,.2-1.5,3.616,3.616,0,0,1,0,7.19,4.16,4.16,0,0,0-.946-2.862.777.777,0,1,0-1.2.989A2.6,2.6,0,1,1,13,26.375V10.687a2.6,2.6,0,0,1,5.121-.669.775.775,0,0,0,.776.577,2.606,2.606,0,0,1,2.54,3.477.777.777,0,0,0,.32.92,2.6,2.6,0,0,1,.663,3.831Z" transform="translate(0.001 -6.556)" fill="#34518d"/>
</svg>
