<svg class="svg-icon" width="15" height="15" style="width: 1em; height: 1em;vertical-align: middle;fill: #707070;overflow: hidden;" viewBox="0 0 1024 1024" version="1.1" xmlns="http://www.w3.org/2000/svg"><path d="M585.142857 786.285714v-109.714285c0-10.276571-8.009143-18.285714-18.285714-18.285715h-109.714286c-10.276571 0-18.285714 8.009143-18.285714 18.285715v109.714285c0 10.276571 8.009143 18.285714 18.285714 18.285715h109.714286c10.276571 0 18.285714-8.009143 18.285714-18.285715zM731.428571 402.285714c0-104.557714-109.714286-182.857143-208.018285-182.857143-93.147429 0-162.852571 40.009143-212.004572 121.709715a17.92 17.92 0 0 0 4.571429 23.990857l75.446857 57.161143a17.444571 17.444571 0 0 0 10.861714 3.437714 18.212571 18.212571 0 0 0 14.299429-6.838857c26.843429-34.304 38.290286-44.580571 49.152-52.553143 9.728-6.838857 28.562286-13.714286 49.152-13.714286 36.571429 0 70.290286 23.442286 70.290286 48.566857 0 29.696-15.433143 44.580571-50.285715 60.562286-40.557714 18.285714-96 65.718857-96 121.161143v20.553143c0 10.276571 8.009143 18.285714 18.285715 18.285714h109.714285c10.276571 0 18.285714-8.009143 18.285715-18.285714 0-13.129143 16.566857-41.142857 43.446857-56.576 43.446857-24.576 102.838857-57.709714 102.838857-144.566857z m219.428572 109.714286c0 242.285714-196.571429 438.857143-438.857143 438.857143S73.142857 754.285714 73.142857 512 269.714286 73.142857 512 73.142857s438.857143 196.571429 438.857143 438.857143z" fill="" /></svg>
