<svg xmlns="http://www.w3.org/2000/svg" xmlns:xlink="http://www.w3.org/1999/xlink" width="32" height="32" viewBox="0 0 32 32">
<path id="restaurant" d="M14,1.31V5h-.667V1.333a.333.333,0,1,0-.667,0V5H12V1.321a.334.334,0,0,0-.667-.011V5h-.667V1.336A.334.334,0,0,0,10,1.318V6.142A1.257,1.257,0,0,0,11.333,7.3V16a1,1,0,1,0,2,0V7.3a1.335,1.335,0,0,0,1.333-1.076v-4.9A.334.334,0,0,0,14,1.31Zm3,1.023v8.333h.667V16c0,1.333,2.333,1.333,2.333,0V2.333C20,.667,17,.667,17,2.333Z" transform="translate(0,8)"/>
</svg>
