<svg xmlns="http://www.w3.org/2000/svg" xmlns:xlink="http://www.w3.org/1999/xlink" width="32" height="32" viewBox="0 0 32 32">
    <path id="hospital" d="M12.917,1a.293.293,0,0,0-.292.292V5.375a.293.293,0,0,1-.292.292H6.5a.293.293,0,0,1-.292-.292V1.292A.293.293,0,0,0,5.917,1H3.292A.293.293,0,0,0,3,1.292V14.708A.293.293,0,0,0,3.292,15H5.917a.293.293,0,0,0,.292-.292V10.042A.293.293,0,0,1,6.5,9.75h5.833a.293.293,0,0,1,.292.292v4.667a.293.293,0,0,0,.292.292h2.625a.293.293,0,0,0,.292-.292V1.292A.293.293,0,0,0,15.542,1Z" transform="translate(6,8)"/>
</svg>
