<svg xmlns="http://www.w3.org/2000/svg" width="16.328" height="19.312" viewBox="0 0 16.328 19.312">
  <path id="other-obstacle" d="M12.137,6.1l1.2,4.786a15.961,15.961,0,0,1-3.671.388,15.969,15.969,0,0,1-3.671-.388L7.189,6.1a19.729,19.729,0,0,0,2.474.151A19.729,19.729,0,0,0,12.137,6.1Zm-.308-1.228-.948-3.8a1.256,1.256,0,0,0-2.436,0L7.5,4.866a17.775,17.775,0,0,0,2.166.126A18.591,18.591,0,0,0,11.829,4.869ZM17.35,15.685a.628.628,0,0,1,.046,1.206L9.861,19.4a.628.628,0,0,1-.4,0L1.93,16.891a.628.628,0,0,1,.046-1.206l3-.751.71-2.834a17.143,17.143,0,0,0,3.975.426,17.143,17.143,0,0,0,3.975-.426l.71,2.834Z" transform="translate(-1.499 -0.122)"/>
</svg>
