<svg xmlns="http://www.w3.org/2000/svg" width="18.184" height="22" viewBox="0 0 18.184 22">
  <path id="pedestrians-cross" d="M15.866,22l-2.393-2.614h1.9L18.184,22Zm-5.382,0L9.8,19.386h1.9L12.8,22Zm-5.1,0,1.1-2.614h1.9L7.7,22ZM0,22l2.807-2.614h1.9L2.317,22Zm12.421-3.646-1.535-3.175L8.808,12.94,7.669,15.146,5.758,18.37a.853.853,0,0,1-.957.381l-.07-.019A.84.84,0,0,1,4.2,18.3a.805.805,0,0,1-.027-.671l1.613-3.926L7.442,6.52l-1.671.527L4.716,9.28a.7.7,0,0,1-.891.342L3.8,9.612a.687.687,0,0,1-.378-.37.662.662,0,0,1,0-.522L4.575,6.1a1.282,1.282,0,0,1,.639-.647L7.8,4.259A2.214,2.214,0,0,1,9.12,4.091l.888.161a3.129,3.129,0,0,1,2.248,1.671l.863,1.731,2.047,1.051a.648.648,0,0,1,.307.831l-.007.017a.665.665,0,0,1-.373.357.685.685,0,0,1-.522-.012L12.287,8.893a1.078,1.078,0,0,1-.4-.31l-.869-1.077-.673,3.417,1.834,2.368a4.2,4.2,0,0,1,.7,1.242L14,17.73a.809.809,0,0,1-.054.659.843.843,0,0,1-.532.408l-.017,0a.863.863,0,0,1-.212.026A.847.847,0,0,1,12.421,18.355ZM8.518,1.745a1.789,1.789,0,0,1,3.576,0,1.789,1.789,0,0,1-3.576,0Z"/>
</svg>
