<svg xmlns="http://www.w3.org/2000/svg" xmlns:xlink="http://www.w3.org/1999/xlink" width="32" height="32" viewBox="0 0 32 32">
    <path id="city-hall" d="M6.654,8.8H7.96v8.4H9.921V10h1.961v7.2h1.961V10H15.8v7.2h1.961V8.8h1.306a.629.629,0,0,0,.654-.6.584.584,0,0,0-.273-.485h0l-.01-.006-.017-.01L13.189,4.469V3.524c1.152.53,2.1-.383,3.594.166V1.6c-1.495-.548-2.443.363-3.594-.166V1.3a.328.328,0,0,0-.653,0V4.469L6.3,7.7l-.017.01-.009.006h0A.585.585,0,0,0,6,8.2a.628.628,0,0,0,.653.6Zm.653,9L6,19H19.726l-1.308-1.2Z" transform="translate(3,6)"/>
</svg>
