<svg xmlns="http://www.w3.org/2000/svg" width="20.452" height="15.762" viewBox="0 0 20.452 15.762">
  <path id="roadblock" d="M20.084,34.241H18.628a.368.368,0,0,0-.368.368v1.356H2.192V34.609a.368.368,0,0,0-.368-.368H.368A.368.368,0,0,0,0,34.609V49.635A.368.368,0,0,0,.368,50H1.824a.368.368,0,0,0,.368-.368v-5.83H18.261v5.83a.368.368,0,0,0,.368.368h1.456a.368.368,0,0,0,.368-.368V34.609A.368.368,0,0,0,20.084,34.241ZM2.192,42.435V40.545l1.586-3.21H6.223L3.7,42.435H2.192Zm5.386,0,2.521-5.1h2.445l-2.521,5.1ZM18.1,38.88l-1.757,3.555H13.9l2.521-5.1H18.1V38.88Z" transform="translate(0 -34.241)"/>
</svg>
