<svg xmlns="http://www.w3.org/2000/svg" width="17.835" height="17.104" viewBox="0 0 17.835 17.104">
  <path id="step-stairs" d="M-7833.235-427.9a.972.972,0,0,1-.971-.971V-430.9a.973.973,0,0,1,.285-.688.971.971,0,0,1,.686-.283h2.643v-2.645a.974.974,0,0,1,.972-.971h2.523v-2.521a.971.971,0,0,1,.972-.971h2.523v-2.523a.971.971,0,0,1,.972-.971h3.495a.971.971,0,0,1,.972.971v12.637a.971.971,0,0,1-.972.971Zm.008-8.37a.5.5,0,0,1,0-.706l4.4-4.4h-.7a.5.5,0,0,1-.5-.5.5.5,0,0,1,.5-.5h1.89a.5.5,0,0,1,.192.03l0,0,.017.007.009,0,.012.006.013.006.008,0,.018.01h0a.5.5,0,0,1,.209.241.008.008,0,0,1,0,0,.146.146,0,0,1,.007.019l0,.005.006.017,0,.008,0,.015,0,.01,0,.013a.124.124,0,0,1,0,.013l0,.011c0,.006,0,.011,0,.017a.038.038,0,0,1,0,.007.166.166,0,0,1,0,.022.006.006,0,0,1,0,0c0,.008,0,.017,0,.025h0v1.91a.5.5,0,0,1-.5.5.5.5,0,0,1-.5-.5v-.7l-4.4,4.4a.5.5,0,0,1-.354.148A.5.5,0,0,1-7833.227-436.266Zm-2.273-2.48h-.049l-.018,0h-.006l-.02,0h0l-.021,0h0a.5.5,0,0,1-.379-.462.061.061,0,0,0,0-.009v-1.925a.5.5,0,0,1,.5-.5.5.5,0,0,1,.5.5v.7l4.4-4.4a.5.5,0,0,1,.708,0,.5.5,0,0,1,0,.708l-4.4,4.4h.7a.5.5,0,0,1,.5.5.5.5,0,0,1-.5.5Z" transform="translate(7836 445)"/>
</svg>
