<svg xmlns="http://www.w3.org/2000/svg" width="20.625" height="18.484" viewBox="0 0 20.625 18.484">
  <path id="street-works" d="M9.394,0A2.064,2.064,0,1,1,7.331,2.064,2.064,2.064,0,0,1,9.394,0Zm2.564,17.113c.326-.6.27-.963.616-1.5s.164-.977.677-1.535l.152-.159L7.833,11.457l1.395,2.208a.988.988,0,0,1,.152.581L9.24,17.113a1,1,0,0,1-2-.093l.124-2.554-1.956-3.1L4.083,17.131a1,1,0,0,1-1.954-.447L3.747,9.65-.274,7.755.293,6.407l.9.4,1.06-1.875a1,1,0,0,1,.7-.494v0l2.97-.51a1,1,0,0,1,.6.084l3.644,1.552a1,1,0,0,1,.586.711h0l1.093,5.022a1.054,1.054,0,0,1,.023.237l2.675,1.183,1.852-1.938.018-.01.03-.008c1.8-.439,3.331,4.747,3.632,5.983l.028.119c.224.913.321,1.313.139,1.5-.142.144-.442.134-.976.119-.247-.007-.545-.017-.9-.012-1.121.012-2.226.012-3.311-.007s-1.121-.051-2.158-.1c-.257-.013-.467-.013-.636-.015-.316,0-.492,0-.561-.081-.091-.1-.087-.22.145-.641l.1-.507ZM5.52,6.031,4.459,8.248,3.038,7.619l.727-1.287,1.756-.3ZM8.156,9.883l.856-2.239.631,2.9L8.156,9.883Z" transform="translate(0.274)" fill-rule="evenodd"/>
</svg>
