<svg xmlns="http://www.w3.org/2000/svg" width="19.291" height="23.442" viewBox="0 0 19.291 23.442">
  <path id="traffic-light" d="M5.537,23.442V19.288H3.407a.843.843,0,0,1-.852-.831v-.947A3.341,3.341,0,0,1,0,14.3H2.556v-.947A3.341,3.341,0,0,1,0,10.151H2.556V9.2A3.341,3.341,0,0,1,0,6H2.556V5.167a.842.842,0,0,1,.852-.831H8.625a5.262,5.262,0,0,0,3.99,4.015,3.47,3.47,0,0,1-1.541.853v.947H13.63a3.34,3.34,0,0,1-2.556,3.206V14.3H13.63a3.34,3.34,0,0,1-2.556,3.206v.947a.843.843,0,0,1-.852.831H8.093v4.153Zm-.426-7.476a1.7,1.7,0,1,0,1.7-1.662A1.685,1.685,0,0,0,5.111,15.966Zm0-4.153a1.7,1.7,0,1,0,1.7-1.662A1.685,1.685,0,0,0,5.111,11.813Zm0-4.153A1.7,1.7,0,1,0,6.815,6,1.685,1.685,0,0,0,5.111,7.659Zm9.067-1.108L12.057,4.86H10.5a.4.4,0,0,1-.4-.391V2.126a.4.4,0,0,1,.4-.391h1.558L14.178.045A.2.2,0,0,1,14.39.019.192.192,0,0,1,14.5.195V6.4a.191.191,0,0,1-.114.176.2.2,0,0,1-.212-.025Zm3.13-2.7L15.892,5.232l-.567-.553L16.741,3.3,15.325,1.917l.567-.552,1.416,1.38,1.416-1.38.567.552L17.875,3.3l1.416,1.38-.567.553Z" transform="translate(0 0)"/>
</svg>
