<svg xmlns="http://www.w3.org/2000/svg" xmlns:xlink="http://www.w3.org/1999/xlink" width="32" height="32" viewBox="0 0 32 32">
  <g id="place-transpot-and-parking" transform="translate(-154 -246.649)">
    <g id="transpot-and-parking" transform="translate(-14, -11)">
      <path id="bus-station" d="M10.736,4.558h-5.8a.314.314,0,0,1-.308-.311.4.4,0,0,1,.011-.084l.309-2.157c.026-.14.152-.168.3-.168h5.176c.15,0,.277.025.3.165l.309,2.2a.32.32,0,0,1,.011.068A.3.3,0,0,1,10.736,4.558ZM10.5,6.977a.577.577,0,1,1,.59-.578A.584.584,0,0,1,10.5,6.977Zm-5.348,0A.577.577,0,1,1,5.749,6.4.584.584,0,0,1,5.156,6.977ZM6.175.57H9.8v.544H6.175A.272.272,0,0,1,6.175.57Zm5.112.832c-.106-.51-.415-.715-.92-.92A8.352,8.352,0,0,0,7.819.032a8.412,8.412,0,0,0-2.559.45c-.5.205-.808.411-.913.92L4,4.24V8.183h.544v.363c0,.725.906.725.906,0V8.183H9.982v.363a.544.544,0,0,0,1.088,0V8.183h.544V4.24Z" transform="translate(171.171 274.06)"/>
      <path id="parking" d="M10.588,0H7V7.933H8.745V5.394h1.843a2.679,2.679,0,0,0,2.744-2.859A2.445,2.445,0,0,0,10.588,0ZM10.11,3.808H8.745V1.428H10.11c.811,0,1.534.179,1.534,1.188S10.921,3.808,10.11,3.808Z" transform="translate(178.471 263.41)"/>
      <line id="Line_8" data-name="Line 8" x2="13.586" y2="13.586" transform="translate(177.21 266.081)" fill="none" stroke="#000" stroke-width="0.5"/>
    </g>
  </g>
</svg>
