<svg xmlns="http://www.w3.org/2000/svg" width="42.322" height="33.588" viewBox="0 0 42.322 33.588"><defs><style>.a{fill:#fff;}.b,.c{stroke:none;}.c{fill:#6fd43d;}</style></defs><g transform="translate(4 -1.814)"><g transform="translate(0 5.814)"><g class="a" transform="translate(0 -5.814)"><path class="b" d="M 12.71755695343018 33.40213394165039 C 11.11825752258301 33.40213394165039 9.615157127380371 32.77950286865234 8.485147476196289 31.64894485473633 L -0.2471529096364975 22.91663551330566 C -1.377372860908508 21.78697395324707 -2.000002861022949 20.28390502929688 -2.000002861022949 18.6846752166748 C -2.000002861022949 17.08543395996094 -1.377372860908508 15.58236503601074 -0.2468129098415375 14.45235443115234 C 0.8825170993804932 13.32248497009277 2.385617017745972 12.69985485076904 3.984907150268555 12.69985485076904 C 5.584027290344238 12.69985485076904 7.087197303771973 13.32236480712891 8.217536926269531 14.45270442962646 L 12.71817016601563 18.95267105102539 L 26.10399627685547 5.566844463348389 C 27.23366737365723 4.436624526977539 28.73675727844238 3.81400465965271 30.33605766296387 3.81400465965271 C 31.93516731262207 3.81400465965271 33.43834686279297 4.43650484085083 34.56868743896484 5.566834449768066 C 35.69902801513672 6.697184562683105 36.32153701782227 8.200124740600586 36.32153701782227 9.79881477355957 C 36.32153701782227 11.39750480651855 35.69902801513672 12.90044498443604 34.56868743896484 14.03078460693359 L 16.95018768310547 31.64928436279297 C 15.81984710693359 32.77962493896484 14.31667709350586 33.40213394165039 12.71755695343018 33.40213394165039 Z"/><path class="c" d="M 12.71755695343018 31.40213394165039 C 13.73769950866699 31.40213394165039 14.75793743133545 31.01311492919922 15.53597736358643 30.23507499694824 L 33.15447616577148 12.61657428741455 C 33.90172576904297 11.86932468414307 34.32153701782227 10.8554744720459 34.32153701782227 9.79881477355957 C 34.32153701782227 8.742155075073242 33.90172576904297 7.728304862976074 33.15447616577148 6.981054782867432 C 32.37643814086914 6.203019618988037 31.35619926452637 5.81400203704834 30.33605766296387 5.81400203704834 C 29.31591415405273 5.81400203704834 28.29586791992188 6.203019618988037 27.51820755004883 6.981054782867432 L 13.43016719818115 21.06909370422363 C 13.23340225219727 21.26511001586914 12.97561931610107 21.36311721801758 12.71793174743652 21.36311721801758 C 12.46024417877197 21.36311721801758 12.20265197753906 21.26511001586914 12.00626754760742 21.06909370422363 L 6.803327083587646 15.86691474914551 C 6.02528715133667 15.08887481689453 5.005052089691162 14.69985485076904 3.984910726547241 14.69985485076904 C 2.964769601821899 14.69985485076904 1.944722056388855 15.08887481689453 1.167057037353516 15.86691474914551 C -0.3890229165554047 17.4222354888916 -0.3890229165554047 19.94710540771484 1.167057037353516 21.5024242401123 L 9.899706840515137 30.23507499694824 C 10.67736721038818 31.01311492919922 11.69741439819336 31.40213394165039 12.71755695343018 31.40213394165039 M 12.71755695343018 35.40213394165039 C 10.58385753631592 35.40213394165039 8.578387260437012 34.57134628295898 7.070587158203125 33.06281280517578 L -1.661372900009155 24.33085441589355 C -3.169212818145752 22.82374382019043 -4.000002861022949 20.81831550598145 -4.000002861022949 18.6846752166748 C -4.000002861022949 16.551025390625 -3.169212818145752 14.54559421539307 -1.660682916641235 13.0377950668335 C -0.1542329043149948 11.53063488006592 1.851227045059204 10.69985485076904 3.984907150268555 10.69985485076904 C 6.118237018585205 10.69985485076904 8.123666763305664 11.53039455413818 9.631756782531738 13.03848457336426 L 12.71805953979492 16.12434196472168 L 24.68977737426758 4.152624607086182 C 26.19690704345703 2.644784688949585 28.20236778259277 1.81400465965271 30.33605766296387 1.81400465965271 C 32.46937561035156 1.81400465965271 34.47479629516602 2.644534587860107 35.98288726806641 4.152604579925537 C 37.49099731445313 5.660714626312256 38.32153701782227 7.665904521942139 38.32153701782227 9.79881477355957 C 38.32153701782227 11.93172454833984 37.49099731445313 13.93691444396973 35.98290634155273 15.4450044631958 L 18.36440658569336 33.06350326538086 C 16.8563175201416 34.57159423828125 14.85088729858398 35.40213394165039 12.71755695343018 35.40213394165039 Z"/></g></g></g></svg>