<svg xmlns="http://www.w3.org/2000/svg" width="24.405" height="19.832" viewBox="0 0 24.405 19.832"><defs><style>.a{fill:#6ec7f5;}</style></defs><g transform="translate(0 -2.897)"><path class="a" d="M19.562,4.123c.016-.748-.013-1.221-.013-1.221L12.239,2.9h-.074L4.854,2.9s-.028.473-.012,1.221H0v.8C0,5.1.031,9.4,2.684,11.759A6,6,0,0,0,6.8,13.236c.246,0,.5-.017.756-.039a7.065,7.065,0,0,0,3.2,2.6V19.3H7.223v2.2H6.058v1.232H18.347V21.5H17.181V19.3H13.653V15.794a7.069,7.069,0,0,0,3.2-2.6c.258.022.511.038.758.038a6,6,0,0,0,4.115-1.478C24.374,9.4,24.4,5.1,24.4,4.921v-.8ZM3.75,10.568a7.8,7.8,0,0,1-2.1-4.848H4.934a15.969,15.969,0,0,0,1.219,5.038c.138.3.283.59.432.871A4.4,4.4,0,0,1,3.75,10.568Zm16.905,0a4.4,4.4,0,0,1-2.834,1.061c.148-.28.294-.568.432-.871A15.946,15.946,0,0,0,19.471,5.72h3.281A7.8,7.8,0,0,1,20.655,10.568Z" transform="translate(0 0)"/></g></svg>