<svg xmlns="http://www.w3.org/2000/svg" width="161.568" height="161.205" viewBox="0 0 161.568 161.205"><defs><style>.a{fill:#1976d2;}.b{fill:#2196f3;}</style></defs><g transform="translate(-99.159 -135.325)"><path class="a" d="M14.25,0l3.563,10.688L28.5,14.25,17.813,17.813,14.25,28.5,10.688,17.813,0,14.25l10.688-3.562Z" transform="translate(104.825 168.022)"/><path class="a" d="M14.25,0l3.563,10.688L28.5,14.25,17.813,17.813,14.25,28.5,10.688,17.813,0,14.25l10.688-3.562Z" transform="translate(226.56 168.022)"/><path class="a" d="M5.666,0,7.083,4.25l4.25,1.417L7.083,7.083l-1.417,4.25L4.25,7.083,0,5.666,4.25,4.25Z" transform="translate(99.159 207.855) rotate(-90)"/><path class="a" d="M5.666,0,7.083,4.25l4.25,1.417L7.083,7.083l-1.417,4.25L4.25,7.083,0,5.666,4.25,4.25Z" transform="translate(260.727 196.522) rotate(90)"/><path class="a" d="M5.666,0,7.083,4.25l4.25,1.417L7.083,7.083l-1.417,4.25L4.25,7.083,0,5.666,4.25,4.25Z" transform="translate(126.394 211.022) rotate(-90)"/><path class="a" d="M5.666,0,7.083,4.25l4.25,1.417L7.083,7.083l-1.417,4.25L4.25,7.083,0,5.666,4.25,4.25Z" transform="translate(233.491 199.689) rotate(90)"/><path class="a" d="M5.666,0,7.083,4.25l4.25,1.417L7.083,7.083l-1.417,4.25L4.25,7.083,0,5.666,4.25,4.25Z" transform="translate(110.491 227.022) rotate(-90)"/><path class="a" d="M5.666,0,7.083,4.25l4.25,1.417L7.083,7.083l-1.417,4.25L4.25,7.083,0,5.666,4.25,4.25Z" transform="translate(249.394 215.689) rotate(90)"/><path class="a" d="M37.422,35.049h-.006A2.559,2.559,0,0,0,35.6,35.8a2.585,2.585,0,0,0-.764,1.843V76.573a2.6,2.6,0,0,0,2.6,2.6c6.043.014,16.167,1.274,23.151,8.583V47.012a2.488,2.488,0,0,0-.357-1.315C54.494,36.466,43.478,35.063,37.422,35.049Z" transform="translate(117.402 100.276)"/><path class="a" d="M182.5,76.572V37.644a2.585,2.585,0,0,0-.764-1.843,2.559,2.559,0,0,0-1.819-.754h-.006c-6.056.014-17.072,1.417-22.8,10.648a2.488,2.488,0,0,0-.357,1.315V87.749c6.984-7.309,17.108-8.568,23.151-8.583A2.6,2.6,0,0,0,182.5,76.572Z" transform="translate(25.265 100.277)"/><path class="b" d="M199.546,71.8h-1.882v32.546a6.642,6.642,0,0,1-6.62,6.626c-5.125.012-13.577,1.014-19.562,6.679,10.352-2.535,21.264-.887,27.483.53a2.6,2.6,0,0,0,3.177-2.529V74.4A2.6,2.6,0,0,0,199.546,71.8Z" transform="translate(14.132 72.501)"/><path class="b" d="M4.478,104.347V71.8H2.6A2.6,2.6,0,0,0,0,74.4v41.256a2.6,2.6,0,0,0,3.177,2.529c6.219-1.417,17.132-3.065,27.483-.53-5.985-5.665-14.436-6.667-19.562-6.679A6.641,6.641,0,0,1,4.478,104.347Z" transform="translate(143.727 72.501)"/><g transform="translate(132 201.373)"><path class="a" d="M315.79,47.764A16.608,16.608,0,0,0,309.6,34.87a19.456,19.456,0,0,0-16.541-23.181A14.275,14.275,0,0,0,279.363,0,13.866,13.866,0,0,0,271,2.8V26.947a16.6,16.6,0,0,1,7.81-3.938,2.788,2.788,0,1,1,1.108,5.464A11.178,11.178,0,0,0,271,39.4v21a16.6,16.6,0,0,1,7.81-3.938,2.788,2.788,0,0,1,1.108,5.464A11.178,11.178,0,0,0,271,72.854V92.361a13.932,13.932,0,0,0,22.055-8.521,19.545,19.545,0,0,0,16.576-23.293,16.6,16.6,0,0,0,6.159-12.783Z" transform="translate(-220.634 0)"/><path class="a" d="M22.733,11.688A19.457,19.457,0,0,0,6.193,34.87a16.433,16.433,0,0,0-.033,25.677A19.544,19.544,0,0,0,22.735,83.84,13.932,13.932,0,0,0,44.79,92.361V72.854a11.178,11.178,0,0,0-8.917-10.928,2.788,2.788,0,0,1,1.108-5.464A16.6,16.6,0,0,1,44.79,60.4v-21a11.178,11.178,0,0,0-8.917-10.928,2.788,2.788,0,0,1,1.108-5.464,16.6,16.6,0,0,1,7.81,3.938V2.8A13.866,13.866,0,0,0,36.427,0,14.275,14.275,0,0,0,22.733,11.688Z" transform="translate(0 0)"/></g><path class="b" d="M2233.7,1277.434c8.515,8.29,17.418,29.51,17.418,29.51s-4.754-20.878-12.76-29.51S2225.187,1269.144,2233.7,1277.434Z" transform="translate(-2074.785 -1076.559)"/><path class="b" d="M2230.83,1277.434c2.936,8.29,6,29.51,6,29.51s-1.639-20.878-4.4-29.51S2227.9,1269.144,2230.83,1277.434Z" transform="translate(-2058.499 -1076.559)"/><path class="b" d="M2235.324,1277.434c-2.936,8.29-6,29.51-6,29.51s1.639-20.878,4.4-29.51S2238.259,1269.144,2235.324,1277.434Z" transform="translate(-2048.742 -1076.559)"/><path class="b" d="M2246.738,1277.434c-8.515,8.29-17.418,29.51-17.418,29.51s4.754-20.878,12.76-29.51S2255.253,1269.144,2246.738,1277.434Z" transform="translate(-2046.32 -1076.559)"/></g></svg>