<svg xmlns="http://www.w3.org/2000/svg" width="26.001" height="26" viewBox="0 0 26.001 26">
  <path id="hearing-disability" d="M25.777,24.708,18.96,17.89A9.934,9.934,0,1,0,5.052,3.983L1.3.232A.762.762,0,0,0,.224,1.309L4.215,5.3A9.9,9.9,0,0,0,3.068,9.774V20.647a5.36,5.36,0,0,0,5.326,5.36h.022a4.737,4.737,0,0,0,4.611-2.845,8.758,8.758,0,0,1,4.614-4.437l7.06,7.06a.762.762,0,1,0,1.077-1.077ZM13.044,1.533A8.409,8.409,0,0,1,17.868,16.8l-1.5-1.5A6.324,6.324,0,1,0,7.655,6.585l-1.5-1.5A8.423,8.423,0,0,1,13.044,1.533ZM10.567,5.8a2.552,2.552,0,0,1-.434,3.262L8.778,7.709A4.474,4.474,0,0,1,10.567,5.8Zm1.427-.553a4.8,4.8,0,0,1,3.262,8.939L11.21,10.141A4.037,4.037,0,0,0,11.993,5.248Zm-.351,17.278a3.227,3.227,0,0,1-3.227,1.958H8.4a3.834,3.834,0,0,1-3.807-3.836c0-.1,0-10.807,0-10.86a8.312,8.312,0,0,1,.767-3.344L7.02,8.106A5.918,5.918,0,0,0,7.1,11.331l.587,1.9a.762.762,0,1,0,1.456-.449l-.587-1.9a4.43,4.43,0,0,1-.2-1.438l5.432,5.432a11.135,11.135,0,0,0-4.125,3.648.762.762,0,1,0,1.185.957,9.28,9.28,0,0,1,4.085-3.459L16.5,17.59A9.984,9.984,0,0,0,11.643,22.526Z" transform="translate(0 -0.008)" fill="#fff"/>
</svg>
