<svg id="motor-disability" xmlns="http://www.w3.org/2000/svg" width="20.912" height="26" viewBox="0 0 20.912 26">
  <g id="Group_6" data-name="Group 6" transform="translate(0 6.782)">
    <g id="Group_5" data-name="Group 5">
      <path id="Path_11" data-name="Path 11" d="M70.933,149.613l-1.7-6.782a2.535,2.535,0,0,0-2.468-1.92H62.531V136.1a2.548,2.548,0,0,0-3.681-2.275l-3.391,1.7a2.524,2.524,0,0,0-1.4,2.275v1.568a7.064,7.064,0,1,0,10.162,6.628h.564L66,150.848a2.544,2.544,0,0,0,4.935-1.235ZM56.217,137.038l3.391-1.7a.852.852,0,0,1,.724-.016h0a.854.854,0,0,1,.51.774v3.57a7.061,7.061,0,0,0-1.7-.746v-.081a.845.845,0,1,0-1.69,0v4.039a.851.851,0,0,1-1.7,0V137.8h0A.843.843,0,0,1,56.217,137.038Zm.945,14.04a5.369,5.369,0,0,1-3.1-9.751v1.556a2.541,2.541,0,1,0,5.081,0v-2.167a5.346,5.346,0,0,1,1.92,1.3l.031.033c.066.071.131.143.193.217.011.015.023.029.035.043a5.371,5.371,0,0,1-4.157,8.77Zm11.508-.025a.847.847,0,0,1-1.027-.617l-1.374-5.5a.843.843,0,0,0-.822-.637H64.085a7.083,7.083,0,0,0-.577-1.7H66.77a.847.847,0,0,1,.823.642l1.7,6.782A.849.849,0,0,1,68.67,151.053Z" transform="translate(-50.097 -133.557)" fill="#fff"/>
    </g>
  </g>
  <g id="Group_8" data-name="Group 8" transform="translate(7.347 0)">
    <g id="Group_7" data-name="Group 7">
      <path id="Path_12" data-name="Path 12" d="M198.174,0a3.391,3.391,0,1,0,3.391,3.391A3.395,3.395,0,0,0,198.174,0Zm0,5.087a1.7,1.7,0,1,1,1.7-1.7A1.7,1.7,0,0,1,198.174,5.087Z" transform="translate(-194.783 0)" fill="#fff"/>
    </g>
  </g>
</svg>
