<svg xmlns="http://www.w3.org/2000/svg" width="26.159" height="24" viewBox="0 0 26.159 24">
  <g id="visual-disability" transform="translate(0)">
    <path id="Path_5" data-name="Path 5" d="M44.427,24.406a.812.812,0,0,1-.578-.24L21.486,1.8A.818.818,0,1,1,22.643.646L45.006,23.009a.819.819,0,0,1-.579,1.4Zm0,0" transform="translate(-20.172 -0.406)" fill="#fff"/>
    <path id="Path_6" data-name="Path 6" d="M117.97,60.719a.818.818,0,0,1-.43-1.514,11.834,11.834,0,0,0,4.746-5.552,2.033,2.033,0,0,0,0-1.5,12.334,12.334,0,0,0-17.861-5.549.818.818,0,1,1-.877-1.381A13.968,13.968,0,0,1,123.8,51.537a3.689,3.689,0,0,1,0,2.736,13.477,13.477,0,0,1-5.4,6.325.823.823,0,0,1-.429.121Zm0,0" transform="translate(-97.903 -40.908)" fill="#fff"/>
    <path id="Path_9" data-name="Path 9" d="M109.258,43.09a.818.818,0,0,1,.43,1.514,11.834,11.834,0,0,0-4.746,5.552,2.033,2.033,0,0,0,0,1.5A12.334,12.334,0,0,0,122.805,57.2a.818.818,0,0,1,.877,1.381,13.968,13.968,0,0,1-20.252-6.312,3.689,3.689,0,0,1,0-2.736,13.477,13.477,0,0,1,5.4-6.325.823.823,0,0,1,.429-.121Zm0,0" transform="translate(-103.166 -38.901)" fill="#fff"/>
    <path id="Path_7" data-name="Path 7" d="M198.165,159.427a1.029,1.029,0,0,1-.734-1.75,3.432,3.432,0,1,0-4.854-4.854,1.029,1.029,0,0,1-1.443-1.468,5.49,5.49,0,0,1,7.763,7.765A1.024,1.024,0,0,1,198.165,159.427Zm0,0" transform="translate(-181.939 -143.243)" fill="#fff"/>
    <path id="Path_10" data-name="Path 10" d="M193.158,149.758a1.029,1.029,0,0,1,.734,1.75,3.432,3.432,0,1,0,4.854,4.854,1.029,1.029,0,0,1,1.443,1.468,5.49,5.49,0,0,1-7.764-7.765A1.024,1.024,0,0,1,193.158,149.758Zm0,0" transform="translate(-183.226 -141.941)" fill="#fff"/>
  </g>
</svg>
