<svg xmlns="http://www.w3.org/2000/svg" width="10.363" height="11.375" viewBox="0 0 10.363 11.375">
  <g id="ferris-wheel-svgrepo-com" transform="translate(-2.986)">
    <g id="Group_19" data-name="Group 19" transform="translate(2.986)">
      <path id="Path_94" data-name="Path 94" d="M13.055,5.917l-.791-.252a4.033,4.033,0,0,0,.03-.47,3.948,3.948,0,0,0-.031-.471l.792-.252a.415.415,0,0,0,.273-.526l-.237-.713a.428.428,0,0,0-.537-.268l-.792.252a4.056,4.056,0,0,0-.566-.758l.492-.663a.411.411,0,0,0-.094-.583l-.62-.441a.432.432,0,0,0-.595.092l-.491.661a4.151,4.151,0,0,0-.911-.294V.417A.422.422,0,0,0,8.55,0H7.785a.422.422,0,0,0-.426.417V1.23a4.125,4.125,0,0,0-.914.294L5.956.864A.431.431,0,0,0,5.361.772l-.619.441a.412.412,0,0,0-.094.583l.491.662a4.048,4.048,0,0,0-.567.759L3.78,2.965a.432.432,0,0,0-.325.025.417.417,0,0,0-.211.243l-.237.713a.416.416,0,0,0,.273.526l.79.252a3.689,3.689,0,0,0,0,.942l-.79.251a.423.423,0,0,0-.248.207.409.409,0,0,0-.026.318l.237.713a.427.427,0,0,0,.536.268l.791-.251a4.094,4.094,0,0,0,.566.759l-.491.662a.411.411,0,0,0-.076.31.421.421,0,0,0,.171.273l.62.441a.43.43,0,0,0,.594-.092l.156-.211-.789,2.061H11.01L10.219,9.31l.159.214a.432.432,0,0,0,.594.093l.62-.441a.413.413,0,0,0,.094-.583L11.2,7.931a4.106,4.106,0,0,0,.566-.759l.792.252a.428.428,0,0,0,.325-.025.419.419,0,0,0,.211-.243l.237-.713A.415.415,0,0,0,13.055,5.917Zm-1.624-.723a3.086,3.086,0,0,1-.077.681l-2.14-.681,2.14-.681A3.117,3.117,0,0,1,11.431,5.195Zm-6.528,0a3.124,3.124,0,0,1,.076-.682l2.141.682-2.141.682A3.14,3.14,0,0,1,4.9,5.195ZM7.845,8.377a3.276,3.276,0,0,1-1.322-.424L7.845,6.169ZM8.492,6.17,9.813,7.952a3.29,3.29,0,0,1-1.321.424Zm0-1.952V2.013a3.286,3.286,0,0,1,1.321.425Zm1.843-1.408a3.2,3.2,0,0,1,.818,1.1l-2.139.681ZM7.845,4.22,6.522,2.437a3.276,3.276,0,0,1,1.322-.424V4.22Zm-.524.372L5.179,3.91A3.221,3.221,0,0,1,6,2.81Zm0,1.206L6,7.58a3.223,3.223,0,0,1-.82-1.1Zm3.015,1.781L9.014,5.8l2.14.681A3.22,3.22,0,0,1,10.335,7.578Zm-3.63,3.8.654-1.708v.3a.422.422,0,0,0,.426.417h.766a.422.422,0,0,0,.426-.417v-.3l.653,1.7Z" transform="translate(-2.986 0)" fill="#232245"/>
    </g>
  </g>
</svg>
