<svg xmlns="http://www.w3.org/2000/svg" width="11.976" height="11.976" viewBox="0 0 11.976 11.976">
  <path id="Icon_map-gym" data-name="Icon map-gym" d="M5.219,12.052a.256.256,0,0,1-.013.359l-.551.516a.254.254,0,0,1-.358-.013L1.085,9.454A.256.256,0,0,1,1.1,9.094l.552-.515a.253.253,0,0,1,.358.013Zm4.1-6.512A.256.256,0,0,1,9.3,5.9L5.833,9.142a.254.254,0,0,1-.358-.013l-.828-.894a.256.256,0,0,1,.013-.359l3.47-3.242a.253.253,0,0,1,.358.013ZM6.4,10.949a.256.256,0,0,1-.013.359l-.552.515a.253.253,0,0,1-.358-.013L2.267,8.35A.256.256,0,0,1,2.28,7.99l.551-.515a.254.254,0,0,1,.358.013Zm5.347-5.284a.256.256,0,0,1-.013.359l-.552.515a.254.254,0,0,1-.358-.013l-3.21-3.46a.255.255,0,0,1,.013-.359l.553-.517a.253.253,0,0,1,.358.013Zm1.179-1.1a.256.256,0,0,1-.013.36l-.551.515A.253.253,0,0,1,12,5.425L8.795,1.963a.256.256,0,0,1,.013-.36l.551-.516a.253.253,0,0,1,.358.013Z" transform="translate(-1.018 -1.019)" fill="#232245"/>
</svg>
