<svg xmlns="http://www.w3.org/2000/svg" width="17.023" height="9.93" viewBox="0 0 17.023 9.93">
  <path id="Icon_material-motorcycle" data-name="Icon material-motorcycle" d="M13.789,10.359,10.93,7.5H7.8V8.919h2.546l1.419,1.419H3.547a3.547,3.547,0,0,0,0,7.093,3.5,3.5,0,0,0,3.476-2.837h1.17l1.965-1.965a3.464,3.464,0,0,0-.227,1.255,3.547,3.547,0,1,0,3.859-3.525ZM5.547,14.593a2.159,2.159,0,0,1-2,1.419,2.128,2.128,0,0,1,0-4.256,2.159,2.159,0,0,1,2,1.419h-2v1.419Zm7.93,1.419A2.128,2.128,0,1,1,15.6,13.884,2.125,2.125,0,0,1,13.477,16.012Z" transform="translate(0 -7.5)" fill="#232245"/>
</svg>
