<svg xmlns="http://www.w3.org/2000/svg" width="13.212" height="8.855" viewBox="0 0 13.212 8.855">
  <path id="Icon_map-night-club" data-name="Icon map-night-club" d="M13.86,6.48H9.575a14.1,14.1,0,0,0,.286,4.571,1.821,1.821,0,0,0,1.428.641v2.787h-.1l-1.048.857h3.142l-1.024-.857h-.119V11.671a2.256,2.256,0,0,0,1.428-.62A14.06,14.06,0,0,0,13.86,6.48Zm-.286,1.714H9.861V6.766h3.714Zm-7,6.284H5V12.05L8.147,7.337H.72L3.862,12.05v2.428H2.291a.428.428,0,1,0,0,.857H6.576a.428.428,0,1,0,0-.857Z" transform="translate(-0.72 -6.48)" fill="#232245"/>
</svg>
