<svg xmlns="http://www.w3.org/2000/svg" width="10.734" height="10.734" viewBox="0 0 10.734 10.734">
  <path id="Icon_awesome-paint-brush" data-name="Icon awesome-paint-brush" d="M3.5,6.485A2.122,2.122,0,0,0,1.463,8a.32.32,0,0,1-.306.209C.925,8.21.2,7.63,0,7.49c0,1.726.8,3.244,2.684,3.244a2.424,2.424,0,0,0,2.683-2.52,1.817,1.817,0,0,0-.02-.191ZM9.6,0a1.28,1.28,0,0,0-.843.345C4.471,4.173,4.025,4.263,4.025,5.39a1.941,1.941,0,0,0,.183.811L5.546,7.316a1.929,1.929,0,0,0,.469.064c1.3,0,2.057-.953,4.427-5.376a2.157,2.157,0,0,0,.291-.964A1.092,1.092,0,0,0,9.6,0Z" transform="translate(0.001)" fill="#232245"/>
</svg>
