<svg xmlns="http://www.w3.org/2000/svg" width="9.141" height="12.189" viewBox="0 0 9.141 12.189">
  <path id="Icon_awesome-tree" data-name="Icon awesome-tree" d="M9.006,9.01,7.1,6.856h.729a.541.541,0,0,0,.495-.311.525.525,0,0,0-.078-.573L6.39,3.809h.688a.539.539,0,0,0,.5-.324.53.53,0,0,0-.1-.573L4.849.115a.392.392,0,0,0-.555,0l-2.625,2.8a.53.53,0,0,0-.1.573.54.54,0,0,0,.5.324h.688L.892,5.973a.526.526,0,0,0-.078.572.541.541,0,0,0,.495.311h.729L.136,9.01a.526.526,0,0,0-.085.578.552.552,0,0,0,.5.315H3.809v.582l-.721,1.152a.381.381,0,0,0,.341.551H5.713a.381.381,0,0,0,.341-.551l-.721-1.152V9.9H8.591a.552.552,0,0,0,.5-.315A.526.526,0,0,0,9.006,9.01Z" transform="translate(0 0.001)" fill="#232245"/>
</svg>
