<svg xmlns="http://www.w3.org/2000/svg" width="50" height="50" viewBox="0 0 50 50">
  <g id="like" transform="translate(-50 -1038)">
    <g id="Rectangle_25" data-name="Rectangle 25" transform="translate(50 1038)" fill="#fff" stroke="#1fc446" stroke-width="1">
      <rect width="50" height="50" rx="4" stroke="none"/>
      <rect x="0.5" y="0.5" width="49" height="49" rx="3.5" fill="none"/>
    </g>
    <path id="Icon_feather-thumbs-up" data-name="Icon feather-thumbs-up" d="M14.918,9.952V5.98A2.98,2.98,0,0,0,11.938,3L7.966,11.939V22.864h11.2a1.986,1.986,0,0,0,1.986-1.688l1.371-8.939a1.986,1.986,0,0,0-1.986-2.284ZM7.966,22.864H4.986A1.986,1.986,0,0,1,3,20.877V13.925a1.986,1.986,0,0,1,1.986-1.986H7.966" transform="translate(62.5 1050.5)" fill="none" stroke="#1fc446" stroke-linecap="round" stroke-linejoin="round" stroke-width="1"/>
  </g>
</svg>
