<svg xmlns="http://www.w3.org/2000/svg" width="10.795" height="10.796" viewBox="0 0 10.795 10.796">
  <path id="Icon_awesome-music" data-name="Icon awesome-music" d="M10.8.674A.674.674,0,0,0,9.918.031L3.171,2.024a.675.675,0,0,0-.472.643V8.179A2.917,2.917,0,0,0,2.024,8.1C.906,8.1,0,8.7,0,9.446s.906,1.349,2.024,1.349,2.024-.6,2.024-1.349V4.518l5.4-1.582V6.829a2.917,2.917,0,0,0-.675-.083c-1.118,0-2.024.6-2.024,1.349s.906,1.349,2.024,1.349S10.8,8.841,10.8,8.1V.674Z" transform="translate(0 0.001)" fill="#232245"/>
</svg>
