<svg xmlns="http://www.w3.org/2000/svg" xmlns:xlink="http://www.w3.org/1999/xlink" width="38" height="50.476" viewBox="0 0 38 50.476">
  <defs>
    <filter id="Icon_ionic-md-pin" x="0" y="0" width="38" height="50.476" filterUnits="userSpaceOnUse">
      <feOffset dy="2" input="SourceAlpha"/>
      <feGaussianBlur stdDeviation="1" result="blur"/>
      <feFlood flood-opacity="0.161"/>
      <feComposite operator="in" in2="blur"/>
      <feComposite in="SourceGraphic"/>
    </filter>
  </defs>
  <g id="warning" transform="translate(-111 -351.649)">
    <g transform="matrix(1, 0, 0, 1, 111, 351.65)" filter="url(#Icon_ionic-md-pin)">
      <g id="Icon_ionic-md-pin-2" data-name="Icon ionic-md-pin" transform="translate(-2.75 -0.25)" fill="#ee4141">
        <path d="M 21.75000190734863 44.98777008056641 L 21.3823413848877 44.58886337280273 C 21.34460258483887 44.54791259765625 17.56518173217773 40.43139266967773 13.83817195892334 35.01792144775391 C 11.6444616317749 31.83157157897949 9.895212173461914 28.82264137268066 8.639012336730957 26.07472229003906 C 7.053781986236572 22.60703277587891 6.250001907348633 19.53707122802734 6.250001907348633 16.95009231567383 C 6.250001907348633 14.90548229217529 6.662081718444824 12.91816234588623 7.474792003631592 11.04332160949707 C 8.258742332458496 9.234831809997559 9.379571914672852 7.608982086181641 10.80614185333252 6.210931777954102 C 12.23202228546143 4.813551902770996 13.88981151580811 3.715842008590698 15.73345184326172 2.948292016983032 C 17.6433219909668 2.153162002563477 19.66758155822754 1.750001907348633 21.75000190734863 1.750001907348633 C 23.83242225646973 1.750001907348633 25.85668182373047 2.153162002563477 27.76655197143555 2.948292016983032 C 29.61019134521484 3.715842008590698 31.26797103881836 4.813551902770996 32.69385147094727 6.210931777954102 C 34.12043380737305 7.608982086181641 35.24126052856445 9.234831809997559 36.02521133422852 11.04332160949707 C 36.83792114257812 12.91816234588623 37.25 14.90548229217529 37.25 16.95009231567383 C 37.25 19.53707122802734 36.44622039794922 22.60703277587891 34.86099243164062 26.07472229003906 C 33.60479354858398 28.82264137268066 31.85554122924805 31.83157157897949 29.66183280944824 35.01792144775391 C 25.93482208251953 40.43139266967773 22.1554012298584 44.54791259765625 22.11766242980957 44.58886337280273 L 21.75000190734863 44.98777008056641 Z" stroke="none"/>
        <path d="M 21.75000190734863 2.250003814697266 C 13.4996223449707 2.250003814697266 6.750003814697266 8.864723205566406 6.750003814697266 16.95009231567383 C 6.750003814697266 27.97500228881836 21.75000190734863 44.25 21.75000190734863 44.25 C 21.75000190734863 44.25 36.75 27.97500228881836 36.75 16.95009231567383 C 36.75 8.864723205566406 30.0003719329834 2.250003814697266 21.75000190734863 2.250003814697266 M 21.75000190734863 1.250003814697266 C 23.89872169494629 1.250003814697266 25.98764228820801 1.666080474853516 27.95872116088867 2.486690521240234 C 29.86139297485352 3.278820037841797 31.57227325439453 4.411693572998047 33.0438232421875 5.85382080078125 C 34.51676177978516 7.297321319580078 35.67419052124023 8.976413726806641 36.48396301269531 10.84446334838867 C 37.32404327392578 12.78244018554688 37.75 14.83667182922363 37.75 16.95009231567383 C 37.75 19.60930252075195 36.93099212646484 22.74921226501465 35.31571960449219 26.28260231018066 C 34.04748153686523 29.05687141418457 32.2838020324707 32.09125137329102 30.07367324829102 35.30146026611328 C 26.32677268981934 40.74382019042969 22.52330207824707 44.88651275634766 22.48532104492188 44.9277229309082 L 21.75000190734863 45.72554016113281 L 21.01468276977539 44.9277229309082 C 20.9767017364502 44.88651275634766 17.17323112487793 40.74382019042969 13.42633247375488 35.30146026611328 C 11.21620178222656 32.09125137329102 9.452522277832031 29.05687141418457 8.184280395507812 26.28260231018066 C 6.569011688232422 22.74921226501465 5.750003814697266 19.60930252075195 5.750003814697266 16.95009231567383 C 5.750003814697266 14.83666229248047 6.175960540771484 12.78244018554688 7.016033172607422 10.84446334838867 C 7.825801849365234 8.976413726806641 8.983242034912109 7.297321319580078 10.45618057250977 5.85382080078125 C 11.92773246765137 4.411693572998047 13.63860130310059 3.278820037841797 15.5412712097168 2.486690521240234 C 17.51236152648926 1.666080474853516 19.60128211975098 1.250003814697266 21.75000190734863 1.250003814697266 Z" stroke="none" fill="#fff"/>
      </g>
    </g>
    <circle id="Ellipse_11" data-name="Ellipse 11" cx="10.2" cy="10.2" r="10.2" transform="translate(119.8 358.06)" fill="#fff"/>
    <path id="Icon_material-warning" data-name="Icon material-warning" d="M1.5,12.864H12.921L7.21,3Zm6.23-1.557H6.691V10.268H7.73Zm0-2.077H6.691V7.153H7.73Z" transform="translate(122.79 359.318)" fill="#ee4141"/>
  </g>
</svg>
